<svg width="53" height="53" viewBox="0 0 53 53" fill="none" xmlns="http://www.w3.org/2000/svg">
<rect x="2.5" y="2.5" width="48" height="48" rx="24" fill="#7F7F7F"/>
<rect x="2.5" y="2.5" width="48" height="48" rx="24" stroke="#E5B80B" stroke-width="5"/>
<path d="M17.7311 18.222V15.36H22.7171V28.5H19.5131V18.222H17.7311ZM24.8227 21.75C24.8227 19.686 25.2187 18.06 26.0107 16.872C26.8147 15.684 28.1047 15.09 29.8807 15.09C31.6567 15.09 32.9407 15.684 33.7327 16.872C34.5367 18.06 34.9387 19.686 34.9387 21.75C34.9387 23.838 34.5367 25.476 33.7327 26.664C32.9407 27.852 31.6567 28.446 29.8807 28.446C28.1047 28.446 26.8147 27.852 26.0107 26.664C25.2187 25.476 24.8227 23.838 24.8227 21.75ZM31.9147 21.75C31.9147 20.538 31.7827 19.608 31.5187 18.96C31.2547 18.3 30.7087 17.97 29.8807 17.97C29.0527 17.97 28.5067 18.3 28.2427 18.96C27.9787 19.608 27.8467 20.538 27.8467 21.75C27.8467 22.566 27.8947 23.244 27.9907 23.784C28.0867 24.312 28.2787 24.744 28.5667 25.08C28.8667 25.404 29.3047 25.566 29.8807 25.566C30.4567 25.566 30.8887 25.404 31.1767 25.08C31.4767 24.744 31.6747 24.312 31.7707 23.784C31.8667 23.244 31.9147 22.566 31.9147 21.75ZM20.614 33.182C21.28 33.182 21.862 33.314 22.36 33.578C22.858 33.842 23.242 34.214 23.512 34.694C23.788 35.168 23.926 35.717 23.926 36.341C23.926 36.959 23.788 37.508 23.512 37.988C23.242 38.468 22.855 38.84 22.351 39.104C21.853 39.368 21.274 39.5 20.614 39.5H18.247V33.182H20.614ZM20.515 38.168C21.097 38.168 21.55 38.009 21.874 37.691C22.198 37.373 22.36 36.923 22.36 36.341C22.36 35.759 22.198 35.306 21.874 34.982C21.55 34.658 21.097 34.496 20.515 34.496H19.786V38.168H20.515ZM27.873 34.424C28.449 34.424 28.911 34.616 29.259 35C29.607 35.378 29.781 35.9 29.781 36.566V39.5H28.251V36.773C28.251 36.437 28.164 36.176 27.99 35.99C27.816 35.804 27.582 35.711 27.288 35.711C26.994 35.711 26.76 35.804 26.586 35.99C26.412 36.176 26.325 36.437 26.325 36.773V39.5H24.786V32.84H26.325V35.153C26.481 34.931 26.694 34.754 26.964 34.622C27.234 34.49 27.537 34.424 27.873 34.424ZM32.8935 39.572C32.4555 39.572 32.0655 39.497 31.7235 39.347C31.3815 39.197 31.1115 38.993 30.9135 38.735C30.7155 38.471 30.6045 38.177 30.5805 37.853H32.1015C32.1195 38.027 32.2005 38.168 32.3445 38.276C32.4885 38.384 32.6655 38.438 32.8755 38.438C33.0675 38.438 33.2145 38.402 33.3165 38.33C33.4245 38.252 33.4785 38.153 33.4785 38.033C33.4785 37.889 33.4035 37.784 33.2535 37.718C33.1035 37.646 32.8605 37.568 32.5245 37.484C32.1645 37.4 31.8645 37.313 31.6245 37.223C31.3845 37.127 31.1775 36.98 31.0035 36.782C30.8295 36.578 30.7425 36.305 30.7425 35.963C30.7425 35.675 30.8205 35.414 30.9765 35.18C31.1385 34.94 31.3725 34.751 31.6785 34.613C31.9905 34.475 32.3595 34.406 32.7855 34.406C33.4155 34.406 33.9105 34.562 34.2705 34.874C34.6365 35.186 34.8465 35.6 34.9005 36.116H33.4785C33.4545 35.942 33.3765 35.804 33.2445 35.702C33.1185 35.6 32.9505 35.549 32.7405 35.549C32.5605 35.549 32.4225 35.585 32.3265 35.657C32.2305 35.723 32.1825 35.816 32.1825 35.936C32.1825 36.08 32.2575 36.188 32.4075 36.26C32.5635 36.332 32.8035 36.404 33.1275 36.476C33.4995 36.572 33.8025 36.668 34.0365 36.764C34.2705 36.854 34.4745 37.004 34.6485 37.214C34.8285 37.418 34.9215 37.694 34.9275 38.042C34.9275 38.336 34.8435 38.6 34.6755 38.834C34.5135 39.062 34.2765 39.242 33.9645 39.374C33.6585 39.506 33.3015 39.572 32.8935 39.572Z" fill="#D8D8D8"/>
</svg>
