<svg width="94" height="49" viewBox="0 0 94 49" fill="none" xmlns="http://www.w3.org/2000/svg">
<rect x="2" y="2" width="90" height="45" rx="8" fill="#FEDB67"/>
<rect x="2" y="2" width="90" height="45" rx="8" stroke="#DE4925" stroke-width="2.5" stroke-linejoin="round"/>
<path d="M13.2367 21.364V18.82H17.6687V30.5H14.8207V21.364H13.2367ZM19.5403 24.5C19.5403 22.6653 19.8923 21.22 20.5963 20.164C21.311 19.108 22.4576 18.58 24.0363 18.58C25.615 18.58 26.7563 19.108 27.4603 20.164C28.175 21.22 28.5323 22.6653 28.5323 24.5C28.5323 26.356 28.175 27.812 27.4603 28.868C26.7563 29.924 25.615 30.452 24.0363 30.452C22.4576 30.452 21.311 29.924 20.5963 28.868C19.8923 27.812 19.5403 26.356 19.5403 24.5ZM25.8443 24.5C25.8443 23.4227 25.727 22.596 25.4923 22.02C25.2576 21.4333 24.7723 21.14 24.0363 21.14C23.3003 21.14 22.815 21.4333 22.5803 22.02C22.3456 22.596 22.2283 23.4227 22.2283 24.5C22.2283 25.2253 22.271 25.828 22.3563 26.308C22.4416 26.7773 22.6123 27.1613 22.8683 27.46C23.135 27.748 23.5243 27.892 24.0363 27.892C24.5483 27.892 24.9323 27.748 25.1883 27.46C25.455 27.1613 25.631 26.7773 25.7163 26.308C25.8016 25.828 25.8443 25.2253 25.8443 24.5ZM29.9778 24.5C29.9778 22.6653 30.3298 21.22 31.0338 20.164C31.7485 19.108 32.8951 18.58 34.4738 18.58C36.0525 18.58 37.1938 19.108 37.8978 20.164C38.6125 21.22 38.9698 22.6653 38.9698 24.5C38.9698 26.356 38.6125 27.812 37.8978 28.868C37.1938 29.924 36.0525 30.452 34.4738 30.452C32.8951 30.452 31.7485 29.924 31.0338 28.868C30.3298 27.812 29.9778 26.356 29.9778 24.5ZM36.2818 24.5C36.2818 23.4227 36.1645 22.596 35.9298 22.02C35.6951 21.4333 35.2098 21.14 34.4738 21.14C33.7378 21.14 33.2525 21.4333 33.0178 22.02C32.7831 22.596 32.6658 23.4227 32.6658 24.5C32.6658 25.2253 32.7085 25.828 32.7938 26.308C32.8791 26.7773 33.0498 27.1613 33.3058 27.46C33.5725 27.748 33.9618 27.892 34.4738 27.892C34.9858 27.892 35.3698 27.748 35.6258 27.46C35.8925 27.1613 36.0685 26.7773 36.1538 26.308C36.2391 25.828 36.2818 25.2253 36.2818 24.5ZM56.7979 19.268V30.5H54.0619V23.764L51.5499 30.5H49.3419L46.8139 23.748V30.5H44.0779V19.268H47.3099L50.4619 27.044L53.5819 19.268H56.7979ZM65.7574 28.516H61.5654L60.8934 30.5H58.0294L62.0934 19.268H65.2614L69.3254 30.5H66.4294L65.7574 28.516ZM65.0534 26.404L63.6614 22.292L62.2854 26.404H65.0534ZM74.7703 19.268C75.9543 19.268 76.989 19.5027 77.8743 19.972C78.7596 20.4413 79.4423 21.1027 79.9223 21.956C80.413 22.7987 80.6583 23.7747 80.6583 24.884C80.6583 25.9827 80.413 26.9587 79.9223 27.812C79.4423 28.6653 78.7543 29.3267 77.8583 29.796C76.973 30.2653 75.9436 30.5 74.7703 30.5H70.5623V19.268H74.7703ZM74.5943 28.132C75.629 28.132 76.4343 27.8493 77.0103 27.284C77.5863 26.7187 77.8743 25.9187 77.8743 24.884C77.8743 23.8493 77.5863 23.044 77.0103 22.468C76.4343 21.892 75.629 21.604 74.5943 21.604H73.2983V28.132H74.5943Z" fill="#984C2C"/>
</svg>
