<svg width="96" height="51" viewBox="0 0 96 51" fill="none" xmlns="http://www.w3.org/2000/svg">
<rect x="3" y="3" width="90" height="45" rx="8" fill="#FEDB67"/>
<rect x="3" y="3" width="90" height="45" rx="8" stroke="#DE4925" stroke-width="5" stroke-linejoin="round"/>
<path d="M17.6273 22.364V19.82H22.0593V31.5H19.2113V22.364H17.6273ZM23.9309 25.5C23.9309 23.6653 24.2829 22.22 24.9869 21.164C25.7016 20.108 26.8483 19.58 28.4269 19.58C30.0056 19.58 31.1469 20.108 31.8509 21.164C32.5656 22.22 32.9229 23.6653 32.9229 25.5C32.9229 27.356 32.5656 28.812 31.8509 29.868C31.1469 30.924 30.0056 31.452 28.4269 31.452C26.8483 31.452 25.7016 30.924 24.9869 29.868C24.2829 28.812 23.9309 27.356 23.9309 25.5ZM30.2349 25.5C30.2349 24.4227 30.1176 23.596 29.8829 23.02C29.6483 22.4333 29.1629 22.14 28.4269 22.14C27.6909 22.14 27.2056 22.4333 26.9709 23.02C26.7363 23.596 26.6189 24.4227 26.6189 25.5C26.6189 26.2253 26.6616 26.828 26.7469 27.308C26.8323 27.7773 27.0029 28.1613 27.2589 28.46C27.5256 28.748 27.9149 28.892 28.4269 28.892C28.9389 28.892 29.3229 28.748 29.5789 28.46C29.8456 28.1613 30.0216 27.7773 30.1069 27.308C30.1923 26.828 30.2349 26.2253 30.2349 25.5ZM34.3684 25.5C34.3684 23.6653 34.7204 22.22 35.4244 21.164C36.1391 20.108 37.2858 19.58 38.8644 19.58C40.4431 19.58 41.5844 20.108 42.2884 21.164C43.0031 22.22 43.3604 23.6653 43.3604 25.5C43.3604 27.356 43.0031 28.812 42.2884 29.868C41.5844 30.924 40.4431 31.452 38.8644 31.452C37.2858 31.452 36.1391 30.924 35.4244 29.868C34.7204 28.812 34.3684 27.356 34.3684 25.5ZM40.6724 25.5C40.6724 24.4227 40.5551 23.596 40.3204 23.02C40.0858 22.4333 39.6004 22.14 38.8644 22.14C38.1284 22.14 37.6431 22.4333 37.4084 23.02C37.1738 23.596 37.0564 24.4227 37.0564 25.5C37.0564 26.2253 37.0991 26.828 37.1844 27.308C37.2698 27.7773 37.4404 28.1613 37.6964 28.46C37.9631 28.748 38.3524 28.892 38.8644 28.892C39.3764 28.892 39.7604 28.748 40.0164 28.46C40.2831 28.1613 40.4591 27.7773 40.5444 27.308C40.6298 26.828 40.6724 26.2253 40.6724 25.5ZM52.6766 20.268C53.8606 20.268 54.8952 20.5027 55.7806 20.972C56.6659 21.4413 57.3486 22.1027 57.8286 22.956C58.3192 23.7987 58.5646 24.7747 58.5646 25.884C58.5646 26.9827 58.3192 27.9587 57.8286 28.812C57.3486 29.6653 56.6606 30.3267 55.7646 30.796C54.8792 31.2653 53.8499 31.5 52.6766 31.5H48.4686V20.268H52.6766ZM52.5006 29.132C53.5352 29.132 54.3406 28.8493 54.9166 28.284C55.4926 27.7187 55.7806 26.9187 55.7806 25.884C55.7806 24.8493 55.4926 24.044 54.9166 23.468C54.3406 22.892 53.5352 22.604 52.5006 22.604H51.2046V29.132H52.5006ZM65.5816 22.476C66.6056 22.476 67.4269 22.8173 68.0456 23.5C68.6642 24.172 68.9736 25.1 68.9736 26.284V31.5H66.2536V26.652C66.2536 26.0547 66.0989 25.5907 65.7896 25.26C65.4802 24.9293 65.0642 24.764 64.5416 24.764C64.0189 24.764 63.6029 24.9293 63.2936 25.26C62.9842 25.5907 62.8296 26.0547 62.8296 26.652V31.5H60.0936V19.66H62.8296V23.772C63.1069 23.3773 63.4856 23.0627 63.9656 22.828C64.4456 22.5933 64.9842 22.476 65.5816 22.476ZM74.5068 31.628C73.7281 31.628 73.0348 31.4947 72.4268 31.228C71.8188 30.9613 71.3388 30.5987 70.9868 30.14C70.6348 29.6707 70.4375 29.148 70.3948 28.572H73.0988C73.1308 28.8813 73.2748 29.132 73.5308 29.324C73.7868 29.516 74.1015 29.612 74.4748 29.612C74.8161 29.612 75.0775 29.548 75.2588 29.42C75.4508 29.2813 75.5468 29.1053 75.5468 28.892C75.5468 28.636 75.4135 28.4493 75.1468 28.332C74.8801 28.204 74.4481 28.0653 73.8508 27.916C73.2108 27.7667 72.6775 27.612 72.2508 27.452C71.8241 27.2813 71.4561 27.02 71.1468 26.668C70.8375 26.3053 70.6828 25.82 70.6828 25.212C70.6828 24.7 70.8215 24.236 71.0988 23.82C71.3868 23.3933 71.8028 23.0573 72.3468 22.812C72.9015 22.5667 73.5575 22.444 74.3148 22.444C75.4348 22.444 76.3148 22.7213 76.9548 23.276C77.6055 23.8307 77.9788 24.5667 78.0748 25.484H75.5468C75.5041 25.1747 75.3655 24.9293 75.1308 24.748C74.9068 24.5667 74.6081 24.476 74.2348 24.476C73.9148 24.476 73.6695 24.54 73.4988 24.668C73.3281 24.7853 73.2428 24.9507 73.2428 25.164C73.2428 25.42 73.3761 25.612 73.6428 25.74C73.9201 25.868 74.3468 25.996 74.9228 26.124C75.5841 26.2947 76.1228 26.4653 76.5388 26.636C76.9548 26.796 77.3175 27.0627 77.6268 27.436C77.9468 27.7987 78.1121 28.2893 78.1228 28.908C78.1228 29.4307 77.9735 29.9 77.6748 30.316C77.3868 30.7213 76.9655 31.0413 76.4108 31.276C75.8668 31.5107 75.2321 31.628 74.5068 31.628Z" fill="#984C2C"/>
</svg>
