<svg width="53" height="53" viewBox="0 0 53 53" fill="none" xmlns="http://www.w3.org/2000/svg">
<rect x="2.5" y="2.5" width="48" height="48" rx="24" fill="#7F7F7F"/>
<rect x="2.5" y="2.5" width="48" height="48" rx="24" stroke="#A0A0A0" stroke-width="5"/>
<path d="M22.0604 26.034C22.4684 25.71 22.6544 25.56 22.6184 25.584C23.7944 24.612 24.7184 23.814 25.3904 23.19C26.0744 22.566 26.6504 21.912 27.1184 21.228C27.5864 20.544 27.8204 19.878 27.8204 19.23C27.8204 18.738 27.7064 18.354 27.4784 18.078C27.2504 17.802 26.9084 17.664 26.4524 17.664C25.9964 17.664 25.6364 17.838 25.3724 18.186C25.1204 18.522 24.9944 19.002 24.9944 19.626H22.0244C22.0484 18.606 22.2644 17.754 22.6724 17.07C23.0924 16.386 23.6384 15.882 24.3104 15.558C24.9944 15.234 25.7504 15.072 26.5784 15.072C28.0064 15.072 29.0804 15.438 29.8004 16.17C30.5324 16.902 30.8984 17.856 30.8984 19.032C30.8984 20.316 30.4604 21.51 29.5844 22.614C28.7084 23.706 27.5924 24.774 26.2364 25.818H31.0964V28.32H22.0604V26.034ZM23.4947 33.182V39.5H21.9557V35.711L20.5427 39.5H19.3007L17.8787 35.702V39.5H16.3397V33.182H18.1577L19.9307 37.556L21.6857 33.182H23.4947ZM28.5345 38.384H26.1765L25.7985 39.5H24.1875L26.4735 33.182H28.2555L30.5415 39.5H28.9125L28.5345 38.384ZM28.1385 37.196L27.3555 34.883L26.5815 37.196H28.1385ZM33.6042 33.182C34.2702 33.182 34.8522 33.314 35.3502 33.578C35.8482 33.842 36.2322 34.214 36.5022 34.694C36.7782 35.168 36.9162 35.717 36.9162 36.341C36.9162 36.959 36.7782 37.508 36.5022 37.988C36.2322 38.468 35.8452 38.84 35.3412 39.104C34.8432 39.368 34.2642 39.5 33.6042 39.5H31.2372V33.182H33.6042ZM33.5052 38.168C34.0872 38.168 34.5402 38.009 34.8642 37.691C35.1882 37.373 35.3502 36.923 35.3502 36.341C35.3502 35.759 35.1882 35.306 34.8642 34.982C34.5402 34.658 34.0872 34.496 33.5052 34.496H32.7762V38.168H33.5052Z" fill="#D8D8D8"/>
</svg>
