<svg width="53" height="53" viewBox="0 0 53 53" fill="none" xmlns="http://www.w3.org/2000/svg">
<rect x="2.5" y="2.5" width="48" height="48" rx="24" fill="#7F7F7F"/>
<rect x="2.5" y="2.5" width="48" height="48" rx="24" stroke="#A0A0A0" stroke-width="5"/>
<path d="M15.2887 17.222V14.36H20.2747V27.5H17.0707V17.222H15.2887ZM27.7723 14.2L24.0203 30.118H21.7103L25.4623 14.2H27.7723ZM28.6161 25.034C29.0241 24.71 29.2101 24.56 29.1741 24.584C30.3501 23.612 31.2741 22.814 31.9461 22.19C32.6301 21.566 33.2061 20.912 33.6741 20.228C34.1421 19.544 34.3761 18.878 34.3761 18.23C34.3761 17.738 34.2621 17.354 34.0341 17.078C33.8061 16.802 33.4641 16.664 33.0081 16.664C32.5521 16.664 32.1921 16.838 31.9281 17.186C31.6761 17.522 31.5501 18.002 31.5501 18.626H28.5801C28.6041 17.606 28.8201 16.754 29.2281 16.07C29.6481 15.386 30.1941 14.882 30.8661 14.558C31.5501 14.234 32.3061 14.072 33.1341 14.072C34.5621 14.072 35.6361 14.438 36.3561 15.17C37.0881 15.902 37.4541 16.856 37.4541 18.032C37.4541 19.316 37.0161 20.51 36.1401 21.614C35.2641 22.706 34.1481 23.774 32.7921 24.818H37.6521V27.32H28.6161V25.034ZM20.614 34.182C21.28 34.182 21.862 34.314 22.36 34.578C22.858 34.842 23.242 35.214 23.512 35.694C23.788 36.168 23.926 36.717 23.926 37.341C23.926 37.959 23.788 38.508 23.512 38.988C23.242 39.468 22.855 39.84 22.351 40.104C21.853 40.368 21.274 40.5 20.614 40.5H18.247V34.182H20.614ZM20.515 39.168C21.097 39.168 21.55 39.009 21.874 38.691C22.198 38.373 22.36 37.923 22.36 37.341C22.36 36.759 22.198 36.306 21.874 35.982C21.55 35.658 21.097 35.496 20.515 35.496H19.786V39.168H20.515ZM27.873 35.424C28.449 35.424 28.911 35.616 29.259 36C29.607 36.378 29.781 36.9 29.781 37.566V40.5H28.251V37.773C28.251 37.437 28.164 37.176 27.99 36.99C27.816 36.804 27.582 36.711 27.288 36.711C26.994 36.711 26.76 36.804 26.586 36.99C26.412 37.176 26.325 37.437 26.325 37.773V40.5H24.786V33.84H26.325V36.153C26.481 35.931 26.694 35.754 26.964 35.622C27.234 35.49 27.537 35.424 27.873 35.424ZM32.8935 40.572C32.4555 40.572 32.0655 40.497 31.7235 40.347C31.3815 40.197 31.1115 39.993 30.9135 39.735C30.7155 39.471 30.6045 39.177 30.5805 38.853H32.1015C32.1195 39.027 32.2005 39.168 32.3445 39.276C32.4885 39.384 32.6655 39.438 32.8755 39.438C33.0675 39.438 33.2145 39.402 33.3165 39.33C33.4245 39.252 33.4785 39.153 33.4785 39.033C33.4785 38.889 33.4035 38.784 33.2535 38.718C33.1035 38.646 32.8605 38.568 32.5245 38.484C32.1645 38.4 31.8645 38.313 31.6245 38.223C31.3845 38.127 31.1775 37.98 31.0035 37.782C30.8295 37.578 30.7425 37.305 30.7425 36.963C30.7425 36.675 30.8205 36.414 30.9765 36.18C31.1385 35.94 31.3725 35.751 31.6785 35.613C31.9905 35.475 32.3595 35.406 32.7855 35.406C33.4155 35.406 33.9105 35.562 34.2705 35.874C34.6365 36.186 34.8465 36.6 34.9005 37.116H33.4785C33.4545 36.942 33.3765 36.804 33.2445 36.702C33.1185 36.6 32.9505 36.549 32.7405 36.549C32.5605 36.549 32.4225 36.585 32.3265 36.657C32.2305 36.723 32.1825 36.816 32.1825 36.936C32.1825 37.08 32.2575 37.188 32.4075 37.26C32.5635 37.332 32.8035 37.404 33.1275 37.476C33.4995 37.572 33.8025 37.668 34.0365 37.764C34.2705 37.854 34.4745 38.004 34.6485 38.214C34.8285 38.418 34.9215 38.694 34.9275 39.042C34.9275 39.336 34.8435 39.6 34.6755 39.834C34.5135 40.062 34.2765 40.242 33.9645 40.374C33.6585 40.506 33.3015 40.572 32.8935 40.572Z" fill="#D8D8D8"/>
</svg>
