<svg width="94" height="49" viewBox="0 0 94 49" fill="none" xmlns="http://www.w3.org/2000/svg">
<rect x="2" y="2" width="90" height="45" rx="8" fill="#C1B1D6"/>
<rect x="2" y="2" width="90" height="45" rx="8" stroke="#6C69AA" stroke-width="2.5" stroke-linejoin="round"/>
<path d="M17.0849 28.308C17.4476 28.02 17.6129 27.8867 17.5809 27.908C18.6263 27.044 19.4476 26.3347 20.0449 25.78C20.6529 25.2253 21.1649 24.644 21.5809 24.036C21.9969 23.428 22.2049 22.836 22.2049 22.26C22.2049 21.8227 22.1036 21.4813 21.9009 21.236C21.6983 20.9907 21.3943 20.868 20.9889 20.868C20.5836 20.868 20.2636 21.0227 20.0289 21.332C19.8049 21.6307 19.6929 22.0573 19.6929 22.612H17.0529C17.0743 21.7053 17.2663 20.948 17.6289 20.34C18.0023 19.732 18.4876 19.284 19.0849 18.996C19.6929 18.708 20.3649 18.564 21.1009 18.564C22.3703 18.564 23.3249 18.8893 23.9649 19.54C24.6156 20.1907 24.9409 21.0387 24.9409 22.084C24.9409 23.2253 24.5516 24.2867 23.7729 25.268C22.9943 26.2387 22.0023 27.188 20.7969 28.116H25.1169V30.34H17.0849V28.308ZM26.3216 24.5C26.3216 22.6653 26.6736 21.22 27.3776 20.164C28.0922 19.108 29.2389 18.58 30.8176 18.58C32.3962 18.58 33.5376 19.108 34.2416 20.164C34.9562 21.22 35.3136 22.6653 35.3136 24.5C35.3136 26.356 34.9562 27.812 34.2416 28.868C33.5376 29.924 32.3962 30.452 30.8176 30.452C29.2389 30.452 28.0922 29.924 27.3776 28.868C26.6736 27.812 26.3216 26.356 26.3216 24.5ZM32.6256 24.5C32.6256 23.4227 32.5082 22.596 32.2736 22.02C32.0389 21.4333 31.5536 21.14 30.8176 21.14C30.0816 21.14 29.5962 21.4333 29.3616 22.02C29.1269 22.596 29.0096 23.4227 29.0096 24.5C29.0096 25.2253 29.0522 25.828 29.1376 26.308C29.2229 26.7773 29.3936 27.1613 29.6496 27.46C29.9162 27.748 30.3056 27.892 30.8176 27.892C31.3296 27.892 31.7136 27.748 31.9696 27.46C32.2362 27.1613 32.4122 26.7773 32.4976 26.308C32.5829 25.828 32.6256 25.2253 32.6256 24.5ZM53.1417 19.268V30.5H50.4057V23.764L47.8937 30.5H45.6857L43.1577 23.748V30.5H40.4217V19.268H43.6537L46.8057 27.044L49.9257 19.268H53.1417ZM62.1012 28.516H57.9092L57.2372 30.5H54.3732L58.4372 19.268H61.6052L65.6692 30.5H62.7732L62.1012 28.516ZM61.3972 26.404L60.0052 22.292L58.6292 26.404H61.3972ZM71.1141 19.268C72.2981 19.268 73.3327 19.5027 74.2181 19.972C75.1034 20.4413 75.7861 21.1027 76.2661 21.956C76.7567 22.7987 77.0021 23.7747 77.0021 24.884C77.0021 25.9827 76.7567 26.9587 76.2661 27.812C75.7861 28.6653 75.0981 29.3267 74.2021 29.796C73.3167 30.2653 72.2874 30.5 71.1141 30.5H66.9061V19.268H71.1141ZM70.9381 28.132C71.9727 28.132 72.7781 27.8493 73.3541 27.284C73.9301 26.7187 74.2181 25.9187 74.2181 24.884C74.2181 23.8493 73.9301 23.044 73.3541 22.468C72.7781 21.892 71.9727 21.604 70.9381 21.604H69.6421V28.132H70.9381Z" fill="#716DA8"/>
</svg>
