<svg width="96" height="51" viewBox="0 0 96 51" fill="none" xmlns="http://www.w3.org/2000/svg">
<rect x="3" y="3" width="90" height="45" rx="8" fill="#C1B1D6"/>
<rect x="3" y="3" width="90" height="45" rx="8" stroke="#6C69AA" stroke-width="5" stroke-linejoin="round"/>
<path d="M21.4756 29.308C21.8382 29.02 22.0036 28.8867 21.9716 28.908C23.0169 28.044 23.8382 27.3347 24.4356 26.78C25.0436 26.2253 25.5556 25.644 25.9716 25.036C26.3876 24.428 26.5956 23.836 26.5956 23.26C26.5956 22.8227 26.4942 22.4813 26.2916 22.236C26.0889 21.9907 25.7849 21.868 25.3796 21.868C24.9742 21.868 24.6542 22.0227 24.4196 22.332C24.1956 22.6307 24.0836 23.0573 24.0836 23.612H21.4436C21.4649 22.7053 21.6569 21.948 22.0196 21.34C22.3929 20.732 22.8782 20.284 23.4756 19.996C24.0836 19.708 24.7556 19.564 25.4916 19.564C26.7609 19.564 27.7156 19.8893 28.3556 20.54C29.0062 21.1907 29.3316 22.0387 29.3316 23.084C29.3316 24.2253 28.9422 25.2867 28.1636 26.268C27.3849 27.2387 26.3929 28.188 25.1876 29.116H29.5076V31.34H21.4756V29.308ZM30.7122 25.5C30.7122 23.6653 31.0642 22.22 31.7682 21.164C32.4829 20.108 33.6295 19.58 35.2082 19.58C36.7869 19.58 37.9282 20.108 38.6322 21.164C39.3469 22.22 39.7042 23.6653 39.7042 25.5C39.7042 27.356 39.3469 28.812 38.6322 29.868C37.9282 30.924 36.7869 31.452 35.2082 31.452C33.6295 31.452 32.4829 30.924 31.7682 29.868C31.0642 28.812 30.7122 27.356 30.7122 25.5ZM37.0162 25.5C37.0162 24.4227 36.8989 23.596 36.6642 23.02C36.4295 22.4333 35.9442 22.14 35.2082 22.14C34.4722 22.14 33.9869 22.4333 33.7522 23.02C33.5175 23.596 33.4002 24.4227 33.4002 25.5C33.4002 26.2253 33.4429 26.828 33.5282 27.308C33.6135 27.7773 33.7842 28.1613 34.0402 28.46C34.3069 28.748 34.6962 28.892 35.2082 28.892C35.7202 28.892 36.1042 28.748 36.3602 28.46C36.6269 28.1613 36.8029 27.7773 36.8882 27.308C36.9735 26.828 37.0162 26.2253 37.0162 25.5ZM49.0203 20.268C50.2043 20.268 51.239 20.5027 52.1243 20.972C53.0096 21.4413 53.6923 22.1027 54.1723 22.956C54.663 23.7987 54.9083 24.7747 54.9083 25.884C54.9083 26.9827 54.663 27.9587 54.1723 28.812C53.6923 29.6653 53.0043 30.3267 52.1083 30.796C51.223 31.2653 50.1936 31.5 49.0203 31.5H44.8123V20.268H49.0203ZM48.8443 29.132C49.879 29.132 50.6843 28.8493 51.2603 28.284C51.8363 27.7187 52.1243 26.9187 52.1243 25.884C52.1243 24.8493 51.8363 24.044 51.2603 23.468C50.6843 22.892 49.879 22.604 48.8443 22.604H47.5483V29.132H48.8443ZM61.9253 22.476C62.9493 22.476 63.7706 22.8173 64.3893 23.5C65.008 24.172 65.3173 25.1 65.3173 26.284V31.5H62.5973V26.652C62.5973 26.0547 62.4426 25.5907 62.1333 25.26C61.824 24.9293 61.408 24.764 60.8853 24.764C60.3626 24.764 59.9466 24.9293 59.6373 25.26C59.328 25.5907 59.1733 26.0547 59.1733 26.652V31.5H56.4373V19.66H59.1733V23.772C59.4506 23.3773 59.8293 23.0627 60.3093 22.828C60.7893 22.5933 61.328 22.476 61.9253 22.476ZM70.8506 31.628C70.0719 31.628 69.3786 31.4947 68.7706 31.228C68.1626 30.9613 67.6826 30.5987 67.3306 30.14C66.9786 29.6707 66.7812 29.148 66.7386 28.572H69.4426C69.4746 28.8813 69.6186 29.132 69.8746 29.324C70.1306 29.516 70.4452 29.612 70.8186 29.612C71.1599 29.612 71.4212 29.548 71.6026 29.42C71.7946 29.2813 71.8906 29.1053 71.8906 28.892C71.8906 28.636 71.7572 28.4493 71.4906 28.332C71.2239 28.204 70.7919 28.0653 70.1946 27.916C69.5546 27.7667 69.0212 27.612 68.5946 27.452C68.1679 27.2813 67.7999 27.02 67.4906 26.668C67.1812 26.3053 67.0266 25.82 67.0266 25.212C67.0266 24.7 67.1652 24.236 67.4426 23.82C67.7306 23.3933 68.1466 23.0573 68.6906 22.812C69.2452 22.5667 69.9012 22.444 70.6586 22.444C71.7786 22.444 72.6586 22.7213 73.2986 23.276C73.9492 23.8307 74.3226 24.5667 74.4186 25.484H71.8906C71.8479 25.1747 71.7092 24.9293 71.4746 24.748C71.2506 24.5667 70.9519 24.476 70.5786 24.476C70.2586 24.476 70.0132 24.54 69.8426 24.668C69.6719 24.7853 69.5866 24.9507 69.5866 25.164C69.5866 25.42 69.7199 25.612 69.9866 25.74C70.2639 25.868 70.6906 25.996 71.2666 26.124C71.9279 26.2947 72.4666 26.4653 72.8826 26.636C73.2986 26.796 73.6612 27.0627 73.9706 27.436C74.2906 27.7987 74.4559 28.2893 74.4666 28.908C74.4666 29.4307 74.3172 29.9 74.0186 30.316C73.7306 30.7213 73.3092 31.0413 72.7546 31.276C72.2106 31.5107 71.5759 31.628 70.8506 31.628Z" fill="#716DA8"/>
</svg>
