<svg width="94" height="49" viewBox="0 0 94 49" fill="none" xmlns="http://www.w3.org/2000/svg">
<rect x="2" y="2" width="90" height="45" rx="8" fill="#CDCCD2"/>
<rect x="2" y="2" width="90" height="45" rx="8" stroke="#3467A4" stroke-width="2.5" stroke-linejoin="round"/>
<path d="M11.8662 28.308C12.2289 28.02 12.3942 27.8867 12.3622 27.908C13.4075 27.044 14.2289 26.3347 14.8262 25.78C15.4342 25.2253 15.9462 24.644 16.3622 24.036C16.7782 23.428 16.9862 22.836 16.9862 22.26C16.9862 21.8227 16.8849 21.4813 16.6822 21.236C16.4795 20.9907 16.1755 20.868 15.7702 20.868C15.3649 20.868 15.0449 21.0227 14.8102 21.332C14.5862 21.6307 14.4742 22.0573 14.4742 22.612H11.8342C11.8555 21.7053 12.0475 20.948 12.4102 20.34C12.7835 19.732 13.2689 19.284 13.8662 18.996C14.4742 18.708 15.1462 18.564 15.8822 18.564C17.1515 18.564 18.1062 18.8893 18.7462 19.54C19.3969 20.1907 19.7222 21.0387 19.7222 22.084C19.7222 23.2253 19.3329 24.2867 18.5542 25.268C17.7755 26.2387 16.7835 27.188 15.5782 28.116H19.8982V30.34H11.8662V28.308ZM21.1028 24.5C21.1028 22.6653 21.4548 21.22 22.1588 20.164C22.8735 19.108 24.0201 18.58 25.5988 18.58C27.1775 18.58 28.3188 19.108 29.0228 20.164C29.7375 21.22 30.0948 22.6653 30.0948 24.5C30.0948 26.356 29.7375 27.812 29.0228 28.868C28.3188 29.924 27.1775 30.452 25.5988 30.452C24.0201 30.452 22.8735 29.924 22.1588 28.868C21.4548 27.812 21.1028 26.356 21.1028 24.5ZM27.4068 24.5C27.4068 23.4227 27.2895 22.596 27.0548 22.02C26.8201 21.4333 26.3348 21.14 25.5988 21.14C24.8628 21.14 24.3775 21.4333 24.1428 22.02C23.9081 22.596 23.7908 23.4227 23.7908 24.5C23.7908 25.2253 23.8335 25.828 23.9188 26.308C24.0041 26.7773 24.1748 27.1613 24.4308 27.46C24.6975 27.748 25.0868 27.892 25.5988 27.892C26.1108 27.892 26.4948 27.748 26.7508 27.46C27.0175 27.1613 27.1935 26.7773 27.2788 26.308C27.3641 25.828 27.4068 25.2253 27.4068 24.5ZM31.5403 24.5C31.5403 22.6653 31.8923 21.22 32.5963 20.164C33.311 19.108 34.4576 18.58 36.0363 18.58C37.615 18.58 38.7563 19.108 39.4603 20.164C40.175 21.22 40.5323 22.6653 40.5323 24.5C40.5323 26.356 40.175 27.812 39.4603 28.868C38.7563 29.924 37.615 30.452 36.0363 30.452C34.4576 30.452 33.311 29.924 32.5963 28.868C31.8923 27.812 31.5403 26.356 31.5403 24.5ZM37.8443 24.5C37.8443 23.4227 37.727 22.596 37.4923 22.02C37.2576 21.4333 36.7723 21.14 36.0363 21.14C35.3003 21.14 34.815 21.4333 34.5803 22.02C34.3456 22.596 34.2283 23.4227 34.2283 24.5C34.2283 25.2253 34.271 25.828 34.3563 26.308C34.4416 26.7773 34.6123 27.1613 34.8683 27.46C35.135 27.748 35.5243 27.892 36.0363 27.892C36.5483 27.892 36.9323 27.748 37.1883 27.46C37.455 27.1613 37.631 26.7773 37.7163 26.308C37.8016 25.828 37.8443 25.2253 37.8443 24.5ZM58.3604 19.268V30.5H55.6244V23.764L53.1124 30.5H50.9044L48.3764 23.748V30.5H45.6404V19.268H48.8724L52.0244 27.044L55.1444 19.268H58.3604ZM67.3199 28.516H63.1279L62.4559 30.5H59.5919L63.6559 19.268H66.8239L70.8879 30.5H67.9919L67.3199 28.516ZM66.6159 26.404L65.2239 22.292L63.8479 26.404H66.6159ZM76.3328 19.268C77.5168 19.268 78.5515 19.5027 79.4368 19.972C80.3221 20.4413 81.0048 21.1027 81.4848 21.956C81.9755 22.7987 82.2208 23.7747 82.2208 24.884C82.2208 25.9827 81.9755 26.9587 81.4848 27.812C81.0048 28.6653 80.3168 29.3267 79.4208 29.796C78.5355 30.2653 77.5061 30.5 76.3328 30.5H72.1248V19.268H76.3328ZM76.1568 28.132C77.1915 28.132 77.9968 27.8493 78.5728 27.284C79.1488 26.7187 79.4368 25.9187 79.4368 24.884C79.4368 23.8493 79.1488 23.044 78.5728 22.468C77.9968 21.892 77.1915 21.604 76.1568 21.604H74.8608V28.132H76.1568Z" fill="#303C5C"/>
</svg>
