<svg width="96" height="51" viewBox="0 0 96 51" fill="none" xmlns="http://www.w3.org/2000/svg">
<rect x="3" y="3" width="90" height="45" rx="8" fill="#CDCCD2"/>
<rect x="3" y="3" width="90" height="45" rx="8" stroke="#3467A4" stroke-width="5" stroke-linejoin="round"/>
<path d="M16.2568 29.308C16.6195 29.02 16.7848 28.8867 16.7528 28.908C17.7981 28.044 18.6195 27.3347 19.2168 26.78C19.8248 26.2253 20.3368 25.644 20.7528 25.036C21.1688 24.428 21.3768 23.836 21.3768 23.26C21.3768 22.8227 21.2755 22.4813 21.0728 22.236C20.8701 21.9907 20.5661 21.868 20.1608 21.868C19.7555 21.868 19.4355 22.0227 19.2008 22.332C18.9768 22.6307 18.8648 23.0573 18.8648 23.612H16.2248C16.2461 22.7053 16.4381 21.948 16.8008 21.34C17.1741 20.732 17.6595 20.284 18.2568 19.996C18.8648 19.708 19.5368 19.564 20.2728 19.564C21.5421 19.564 22.4968 19.8893 23.1368 20.54C23.7875 21.1907 24.1128 22.0387 24.1128 23.084C24.1128 24.2253 23.7235 25.2867 22.9448 26.268C22.1661 27.2387 21.1741 28.188 19.9688 29.116H24.2888V31.34H16.2568V29.308ZM25.4934 25.5C25.4934 23.6653 25.8454 22.22 26.5494 21.164C27.2641 20.108 28.4108 19.58 29.9894 19.58C31.5681 19.58 32.7094 20.108 33.4134 21.164C34.1281 22.22 34.4854 23.6653 34.4854 25.5C34.4854 27.356 34.1281 28.812 33.4134 29.868C32.7094 30.924 31.5681 31.452 29.9894 31.452C28.4108 31.452 27.2641 30.924 26.5494 29.868C25.8454 28.812 25.4934 27.356 25.4934 25.5ZM31.7974 25.5C31.7974 24.4227 31.6801 23.596 31.4454 23.02C31.2108 22.4333 30.7254 22.14 29.9894 22.14C29.2534 22.14 28.7681 22.4333 28.5334 23.02C28.2988 23.596 28.1814 24.4227 28.1814 25.5C28.1814 26.2253 28.2241 26.828 28.3094 27.308C28.3948 27.7773 28.5654 28.1613 28.8214 28.46C29.0881 28.748 29.4774 28.892 29.9894 28.892C30.5014 28.892 30.8854 28.748 31.1414 28.46C31.4081 28.1613 31.5841 27.7773 31.6694 27.308C31.7548 26.828 31.7974 26.2253 31.7974 25.5ZM35.9309 25.5C35.9309 23.6653 36.2829 22.22 36.9869 21.164C37.7016 20.108 38.8483 19.58 40.4269 19.58C42.0056 19.58 43.1469 20.108 43.8509 21.164C44.5656 22.22 44.9229 23.6653 44.9229 25.5C44.9229 27.356 44.5656 28.812 43.8509 29.868C43.1469 30.924 42.0056 31.452 40.4269 31.452C38.8483 31.452 37.7016 30.924 36.9869 29.868C36.2829 28.812 35.9309 27.356 35.9309 25.5ZM42.2349 25.5C42.2349 24.4227 42.1176 23.596 41.8829 23.02C41.6483 22.4333 41.1629 22.14 40.4269 22.14C39.6909 22.14 39.2056 22.4333 38.9709 23.02C38.7363 23.596 38.6189 24.4227 38.6189 25.5C38.6189 26.2253 38.6616 26.828 38.7469 27.308C38.8323 27.7773 39.0029 28.1613 39.2589 28.46C39.5256 28.748 39.9149 28.892 40.4269 28.892C40.9389 28.892 41.3229 28.748 41.5789 28.46C41.8456 28.1613 42.0216 27.7773 42.1069 27.308C42.1923 26.828 42.2349 26.2253 42.2349 25.5ZM54.2391 20.268C55.4231 20.268 56.4577 20.5027 57.3431 20.972C58.2284 21.4413 58.9111 22.1027 59.3911 22.956C59.8817 23.7987 60.1271 24.7747 60.1271 25.884C60.1271 26.9827 59.8817 27.9587 59.3911 28.812C58.9111 29.6653 58.2231 30.3267 57.3271 30.796C56.4417 31.2653 55.4124 31.5 54.2391 31.5H50.0311V20.268H54.2391ZM54.0631 29.132C55.0977 29.132 55.9031 28.8493 56.4791 28.284C57.0551 27.7187 57.3431 26.9187 57.3431 25.884C57.3431 24.8493 57.0551 24.044 56.4791 23.468C55.9031 22.892 55.0977 22.604 54.0631 22.604H52.7671V29.132H54.0631ZM67.1441 22.476C68.1681 22.476 68.9894 22.8173 69.6081 23.5C70.2267 24.172 70.5361 25.1 70.5361 26.284V31.5H67.8161V26.652C67.8161 26.0547 67.6614 25.5907 67.3521 25.26C67.0427 24.9293 66.6267 24.764 66.1041 24.764C65.5814 24.764 65.1654 24.9293 64.8561 25.26C64.5467 25.5907 64.3921 26.0547 64.3921 26.652V31.5H61.6561V19.66H64.3921V23.772C64.6694 23.3773 65.0481 23.0627 65.5281 22.828C66.0081 22.5933 66.5467 22.476 67.1441 22.476ZM76.0693 31.628C75.2906 31.628 74.5973 31.4947 73.9893 31.228C73.3813 30.9613 72.9013 30.5987 72.5493 30.14C72.1973 29.6707 72 29.148 71.9573 28.572H74.6613C74.6933 28.8813 74.8373 29.132 75.0933 29.324C75.3493 29.516 75.664 29.612 76.0373 29.612C76.3786 29.612 76.64 29.548 76.8213 29.42C77.0133 29.2813 77.1093 29.1053 77.1093 28.892C77.1093 28.636 76.976 28.4493 76.7093 28.332C76.4426 28.204 76.0106 28.0653 75.4133 27.916C74.7733 27.7667 74.24 27.612 73.8133 27.452C73.3866 27.2813 73.0186 27.02 72.7093 26.668C72.4 26.3053 72.2453 25.82 72.2453 25.212C72.2453 24.7 72.384 24.236 72.6613 23.82C72.9493 23.3933 73.3653 23.0573 73.9093 22.812C74.464 22.5667 75.12 22.444 75.8773 22.444C76.9973 22.444 77.8773 22.7213 78.5173 23.276C79.168 23.8307 79.5413 24.5667 79.6373 25.484H77.1093C77.0666 25.1747 76.928 24.9293 76.6933 24.748C76.4693 24.5667 76.1706 24.476 75.7973 24.476C75.4773 24.476 75.232 24.54 75.0613 24.668C74.8906 24.7853 74.8053 24.9507 74.8053 25.164C74.8053 25.42 74.9386 25.612 75.2053 25.74C75.4826 25.868 75.9093 25.996 76.4853 26.124C77.1466 26.2947 77.6853 26.4653 78.1013 26.636C78.5173 26.796 78.88 27.0627 79.1893 27.436C79.5093 27.7987 79.6746 28.2893 79.6853 28.908C79.6853 29.4307 79.536 29.9 79.2373 30.316C78.9493 30.7213 78.528 31.0413 77.9733 31.276C77.4293 31.5107 76.7946 31.628 76.0693 31.628Z" fill="#303C5C"/>
</svg>
