<svg width="96" height="51" viewBox="0 0 96 51" fill="none" xmlns="http://www.w3.org/2000/svg">
<rect x="3" y="3" width="90" height="45" rx="8" fill="#D3DF9F"/>
<rect x="3" y="3" width="90" height="45" rx="8" stroke="#45713C" stroke-width="5" stroke-linejoin="round"/>
<path d="M29.1628 22.204H24.1708V24.412C24.3841 24.1773 24.6828 23.9853 25.0668 23.836C25.4508 23.6867 25.8668 23.612 26.3148 23.612C27.1148 23.612 27.7761 23.7933 28.2987 24.156C28.8321 24.5187 29.2214 24.988 29.4668 25.564C29.7121 26.14 29.8348 26.764 29.8348 27.436C29.8348 28.684 29.4828 29.676 28.7788 30.412C28.0748 31.1373 27.0828 31.5 25.8028 31.5C24.9494 31.5 24.2081 31.356 23.5788 31.068C22.9494 30.7693 22.4641 30.3587 22.1228 29.836C21.7814 29.3133 21.5948 28.7107 21.5628 28.028H24.2348C24.2988 28.3587 24.4534 28.636 24.6988 28.86C24.9441 29.0733 25.2801 29.18 25.7068 29.18C26.2081 29.18 26.5814 29.02 26.8268 28.7C27.0721 28.38 27.1948 27.9533 27.1948 27.42C27.1948 26.8973 27.0668 26.4973 26.8108 26.22C26.5548 25.9427 26.1814 25.804 25.6908 25.804C25.3281 25.804 25.0294 25.8947 24.7948 26.076C24.5601 26.2467 24.4054 26.476 24.3307 26.764H21.6908V19.804H29.1628V22.204ZM31.345 25.5C31.345 23.6653 31.697 22.22 32.401 21.164C33.1157 20.108 34.2623 19.58 35.841 19.58C37.4197 19.58 38.561 20.108 39.265 21.164C39.9797 22.22 40.337 23.6653 40.337 25.5C40.337 27.356 39.9797 28.812 39.265 29.868C38.561 30.924 37.4197 31.452 35.841 31.452C34.2623 31.452 33.1157 30.924 32.401 29.868C31.697 28.812 31.345 27.356 31.345 25.5ZM37.649 25.5C37.649 24.4227 37.5317 23.596 37.297 23.02C37.0623 22.4333 36.577 22.14 35.841 22.14C35.105 22.14 34.6197 22.4333 34.385 23.02C34.1503 23.596 34.033 24.4227 34.033 25.5C34.033 26.2253 34.0757 26.828 34.161 27.308C34.2463 27.7773 34.417 28.1613 34.673 28.46C34.9397 28.748 35.329 28.892 35.841 28.892C36.353 28.892 36.737 28.748 36.993 28.46C37.2597 28.1613 37.4357 27.7773 37.521 27.308C37.6063 26.828 37.649 26.2253 37.649 25.5ZM49.6531 20.268C50.8371 20.268 51.8718 20.5027 52.7571 20.972C53.6425 21.4413 54.3251 22.1027 54.8051 22.956C55.2958 23.7987 55.5411 24.7747 55.5411 25.884C55.5411 26.9827 55.2958 27.9587 54.8051 28.812C54.3251 29.6653 53.6371 30.3267 52.7411 30.796C51.8558 31.2653 50.8265 31.5 49.6531 31.5H45.4451V20.268H49.6531ZM49.4771 29.132C50.5118 29.132 51.3171 28.8493 51.8931 28.284C52.4691 27.7187 52.7571 26.9187 52.7571 25.884C52.7571 24.8493 52.4691 24.044 51.8931 23.468C51.3171 22.892 50.5118 22.604 49.4771 22.604H48.1811V29.132H49.4771ZM62.5581 22.476C63.5821 22.476 64.4035 22.8173 65.0221 23.5C65.6408 24.172 65.9501 25.1 65.9501 26.284V31.5H63.2301V26.652C63.2301 26.0547 63.0755 25.5907 62.7661 25.26C62.4568 24.9293 62.0408 24.764 61.5181 24.764C60.9955 24.764 60.5795 24.9293 60.2701 25.26C59.9608 25.5907 59.8061 26.0547 59.8061 26.652V31.5H57.0701V19.66H59.8061V23.772C60.0835 23.3773 60.4621 23.0627 60.9421 22.828C61.4221 22.5933 61.9608 22.476 62.5581 22.476ZM71.4834 31.628C70.7047 31.628 70.0114 31.4947 69.4034 31.228C68.7954 30.9613 68.3154 30.5987 67.9634 30.14C67.6114 29.6707 67.414 29.148 67.3714 28.572H70.0754C70.1074 28.8813 70.2514 29.132 70.5074 29.324C70.7634 29.516 71.078 29.612 71.4514 29.612C71.7927 29.612 72.054 29.548 72.2354 29.42C72.4274 29.2813 72.5234 29.1053 72.5234 28.892C72.5234 28.636 72.39 28.4493 72.1234 28.332C71.8567 28.204 71.4247 28.0653 70.8274 27.916C70.1874 27.7667 69.654 27.612 69.2274 27.452C68.8007 27.2813 68.4327 27.02 68.1234 26.668C67.814 26.3053 67.6594 25.82 67.6594 25.212C67.6594 24.7 67.798 24.236 68.0754 23.82C68.3634 23.3933 68.7794 23.0573 69.3234 22.812C69.878 22.5667 70.534 22.444 71.2914 22.444C72.4114 22.444 73.2914 22.7213 73.9314 23.276C74.582 23.8307 74.9554 24.5667 75.0514 25.484H72.5234C72.4807 25.1747 72.342 24.9293 72.1074 24.748C71.8834 24.5667 71.5847 24.476 71.2114 24.476C70.8914 24.476 70.646 24.54 70.4754 24.668C70.3047 24.7853 70.2194 24.9507 70.2194 25.164C70.2194 25.42 70.3527 25.612 70.6194 25.74C70.8967 25.868 71.3234 25.996 71.8994 26.124C72.5607 26.2947 73.0994 26.4653 73.5154 26.636C73.9314 26.796 74.294 27.0627 74.6034 27.436C74.9234 27.7987 75.0887 28.2893 75.0994 28.908C75.0994 29.4307 74.95 29.9 74.6514 30.316C74.3634 30.7213 73.942 31.0413 73.3874 31.276C72.8434 31.5107 72.2087 31.628 71.4834 31.628Z" fill="#41703C"/>
</svg>
