<svg width="94" height="49" viewBox="0 0 94 49" fill="none" xmlns="http://www.w3.org/2000/svg">
<rect x="2" y="2" width="90" height="45" rx="8" fill="#D3DF9F"/>
<rect x="2" y="2" width="90" height="45" rx="8" stroke="#45713C" stroke-width="2.5" stroke-linejoin="round"/>
<path d="M24.7721 21.204H19.7801V23.412C19.9935 23.1773 20.2921 22.9853 20.6761 22.836C21.0601 22.6867 21.4761 22.612 21.9241 22.612C22.7241 22.612 23.3855 22.7933 23.9081 23.156C24.4415 23.5187 24.8308 23.988 25.0761 24.564C25.3215 25.14 25.4441 25.764 25.4441 26.436C25.4441 27.684 25.0921 28.676 24.3881 29.412C23.6841 30.1373 22.6921 30.5 21.4121 30.5C20.5588 30.5 19.8175 30.356 19.1881 30.068C18.5588 29.7693 18.0735 29.3587 17.7321 28.836C17.3908 28.3133 17.2041 27.7107 17.1721 27.028H19.8441C19.9081 27.3587 20.0628 27.636 20.3081 27.86C20.5535 28.0733 20.8895 28.18 21.3161 28.18C21.8175 28.18 22.1908 28.02 22.4361 27.7C22.6815 27.38 22.8041 26.9533 22.8041 26.42C22.8041 25.8973 22.6761 25.4973 22.4201 25.22C22.1641 24.9427 21.7908 24.804 21.3001 24.804C20.9375 24.804 20.6388 24.8947 20.4041 25.076C20.1695 25.2467 20.0148 25.476 19.9401 25.764H17.3001V18.804H24.7721V21.204ZM26.9544 24.5C26.9544 22.6653 27.3064 21.22 28.0104 20.164C28.725 19.108 29.8717 18.58 31.4504 18.58C33.029 18.58 34.1704 19.108 34.8744 20.164C35.589 21.22 35.9464 22.6653 35.9464 24.5C35.9464 26.356 35.589 27.812 34.8744 28.868C34.1704 29.924 33.029 30.452 31.4504 30.452C29.8717 30.452 28.725 29.924 28.0104 28.868C27.3064 27.812 26.9544 26.356 26.9544 24.5ZM33.2584 24.5C33.2584 23.4227 33.141 22.596 32.9064 22.02C32.6717 21.4333 32.1864 21.14 31.4504 21.14C30.7144 21.14 30.229 21.4333 29.9944 22.02C29.7597 22.596 29.6424 23.4227 29.6424 24.5C29.6424 25.2253 29.685 25.828 29.7704 26.308C29.8557 26.7773 30.0264 27.1613 30.2824 27.46C30.549 27.748 30.9384 27.892 31.4504 27.892C31.9624 27.892 32.3464 27.748 32.6024 27.46C32.869 27.1613 33.045 26.7773 33.1304 26.308C33.2157 25.828 33.2584 25.2253 33.2584 24.5ZM53.7745 19.268V30.5H51.0385V23.764L48.5265 30.5H46.3185L43.7905 23.748V30.5H41.0545V19.268H44.2865L47.4385 27.044L50.5585 19.268H53.7745ZM62.734 28.516H58.542L57.87 30.5H55.006L59.07 19.268H62.238L66.302 30.5H63.406L62.734 28.516ZM62.03 26.404L60.638 22.292L59.262 26.404H62.03ZM71.7469 19.268C72.9309 19.268 73.9655 19.5027 74.8509 19.972C75.7362 20.4413 76.4189 21.1027 76.8989 21.956C77.3895 22.7987 77.6349 23.7747 77.6349 24.884C77.6349 25.9827 77.3895 26.9587 76.8989 27.812C76.4189 28.6653 75.7309 29.3267 74.8349 29.796C73.9495 30.2653 72.9202 30.5 71.7469 30.5H67.5389V19.268H71.7469ZM71.5709 28.132C72.6055 28.132 73.4109 27.8493 73.9869 27.284C74.5629 26.7187 74.8509 25.9187 74.8509 24.884C74.8509 23.8493 74.5629 23.044 73.9869 22.468C73.4109 21.892 72.6055 21.604 71.5709 21.604H70.2749V28.132H71.5709Z" fill="#41703C"/>
</svg>
