<svg width="26" height="26" viewBox="0 0 26 26" fill="none" xmlns="http://www.w3.org/2000/svg">
<path opacity="0.35" d="M20.5832 26.0003C23.5747 26.0003 25.9998 23.5752 25.9998 20.5837C25.9998 17.5921 23.5747 15.167 20.5832 15.167C17.5916 15.167 15.1665 17.5921 15.1665 20.5837C15.1665 23.5752 17.5916 26.0003 20.5832 26.0003Z" fill="white"/>
<path opacity="0.35" d="M13.0002 13.0003C15.9917 13.0003 18.4168 10.5752 18.4168 7.58366C18.4168 4.59212 15.9917 2.16699 13.0002 2.16699C10.0086 2.16699 7.5835 4.59212 7.5835 7.58366C7.5835 10.5752 10.0086 13.0003 13.0002 13.0003Z" fill="white"/>
<path d="M19.5 23.292V17.8753C19.5 17.2773 19.9853 16.792 20.5833 16.792C21.1813 16.792 21.6667 17.2773 21.6667 17.8753V23.292C21.6667 23.89 21.1813 24.3753 20.5833 24.3753C19.9853 24.3753 19.5 23.89 19.5 23.292Z" fill="white"/>
<path d="M17.8748 19.5H23.2915C23.8895 19.5 24.3748 19.9853 24.3748 20.5833C24.3748 21.1813 23.8895 21.6667 23.2915 21.6667H17.8748C17.2768 21.6667 16.7915 21.1813 16.7915 20.5833C16.7915 19.9853 17.2768 19.5 17.8748 19.5Z" fill="white"/>
<path d="M15.1667 20.5833C15.1667 18.8034 16.0377 17.2369 17.3626 16.25H6.5C4.70492 16.25 3.25 17.7049 3.25 19.5C3.25 21.2951 4.70492 22.75 6.5 22.75H15.6238C15.3335 22.0859 15.1667 21.3547 15.1667 20.5833Z" fill="white"/>
</svg>
