<svg width="26" height="26" viewBox="0 0 26 26" fill="none" xmlns="http://www.w3.org/2000/svg">
<path opacity="0.35" d="M16.25 6.5H9.75C9.75 6.5 3.25 9.75 3.25 17.3333C3.25 22.7186 7.61475 23.8333 13 23.8333C18.3853 23.8333 22.75 22.7186 22.75 17.3333C22.75 9.75 16.25 6.5 16.25 6.5Z" fill="white"/>
<path d="M17.3335 7.58366H8.66683C8.06883 7.58366 7.5835 7.09941 7.5835 6.50033C7.5835 5.90124 8.06883 5.41699 8.66683 5.41699H17.3335C17.9315 5.41699 18.4168 5.90124 18.4168 6.50033C18.4168 7.09941 17.9315 7.58366 17.3335 7.58366Z" fill="white"/>
<path d="M15.5937 17.0039C15.5937 14.1797 12.4759 14.5654 12.4759 13.0931C12.4759 12.2264 13.1573 12.1354 13.3935 12.1354C13.6264 12.1354 13.8311 12.1907 14.0055 12.2698C14.415 12.455 14.9015 12.2828 15.1615 11.9155C15.494 11.4443 15.3218 10.7824 14.7964 10.5462C14.5082 10.4162 14.1485 10.3122 13.713 10.271V9.85936C13.713 9.48236 13.4075 9.17578 13.0295 9.17578C12.6514 9.17578 12.3459 9.48128 12.3459 9.85936V10.414C11.2019 10.7954 10.4587 11.8429 10.4587 13.183C10.4587 16.147 13.5375 15.6119 13.5375 17.1524C13.5375 17.4492 13.3978 18.0949 12.633 18.0949C12.2928 18.0949 12.0003 17.9995 11.762 17.8739C11.3568 17.6615 10.8541 17.8186 10.5963 18.1956L10.5692 18.2357C10.2713 18.6723 10.3915 19.2833 10.8509 19.5433C11.2376 19.7621 11.7089 19.9322 12.2787 19.9929V20.4728C12.2787 20.8498 12.5842 21.1564 12.9623 21.1564C13.3393 21.1564 13.6459 20.8509 13.6459 20.4728V19.8704C14.9112 19.4826 15.5937 18.3289 15.5937 17.0039Z" fill="white"/>
<path opacity="0.35" d="M16.0031 2.76542L15.0487 2.57476C14.7638 1.71026 13.96 1.08301 13.0001 1.08301C12.0403 1.08301 11.2365 1.71026 10.9516 2.57476L9.99715 2.76542C8.8434 2.99617 8.29307 4.32434 8.94632 5.30367L9.74365 6.49967H10.8411H15.1603H16.2577L17.0551 5.30367C17.7072 4.32434 17.1569 2.99617 16.0031 2.76542Z" fill="white"/>
</svg>
