<svg width="26" height="26" viewBox="0 0 26 26" fill="none" xmlns="http://www.w3.org/2000/svg">
<path opacity="0.35" d="M20.5832 10.833H5.4165V16.2497H20.5832V10.833Z" fill="white"/>
<path d="M19.5 5.41699H17.3333V8.66699H8.66667V5.41699H6.5C4.70492 5.41699 3.25 6.87191 3.25 8.66699V18.417H22.75V8.66699C22.75 6.87191 21.2951 5.41699 19.5 5.41699ZM8.66667 13.0003C8.06867 13.0003 7.58333 12.515 7.58333 11.917C7.58333 11.319 8.06867 10.8337 8.66667 10.8337C9.26467 10.8337 9.75 11.319 9.75 11.917C9.75 12.515 9.26467 13.0003 8.66667 13.0003ZM13 13.0003C12.402 13.0003 11.9167 12.515 11.9167 11.917C11.9167 11.319 12.402 10.8337 13 10.8337C13.598 10.8337 14.0833 11.319 14.0833 11.917C14.0833 12.515 13.598 13.0003 13 13.0003ZM17.3333 13.0003C16.7353 13.0003 16.25 12.515 16.25 11.917C16.25 11.319 16.7353 10.8337 17.3333 10.8337C17.9313 10.8337 18.4167 11.319 18.4167 11.917C18.4167 12.515 17.9313 13.0003 17.3333 13.0003ZM8.66667 16.2503C8.06867 16.2503 7.58333 15.765 7.58333 15.167C7.58333 14.569 8.06867 14.0837 8.66667 14.0837C9.26467 14.0837 9.75 14.569 9.75 15.167C9.75 15.765 9.26467 16.2503 8.66667 16.2503ZM13 16.2503C12.402 16.2503 11.9167 15.765 11.9167 15.167C11.9167 14.569 12.402 14.0837 13 14.0837C13.598 14.0837 14.0833 14.569 14.0833 15.167C14.0833 15.765 13.598 16.2503 13 16.2503ZM17.3333 16.2503C16.7353 16.2503 16.25 15.765 16.25 15.167C16.25 14.569 16.7353 14.0837 17.3333 14.0837C17.9313 14.0837 18.4167 14.569 18.4167 15.167C18.4167 15.765 17.9313 16.2503 17.3333 16.2503Z" fill="white"/>
<path opacity="0.35" d="M14.0833 18.417C14.0833 19.015 13.598 19.5003 13 19.5003C12.402 19.5003 11.9167 19.015 11.9167 18.417H3.25V19.5003C3.25 21.2954 4.70492 22.7503 6.5 22.7503H19.5C21.2951 22.7503 22.75 21.2954 22.75 19.5003V18.417H14.0833Z" fill="white"/>
<path opacity="0.35" d="M8.6665 9.75049V4.01749C8.6665 3.16707 9.56134 2.61457 10.3218 2.99482C10.6436 3.15624 11.0228 3.15624 11.3445 2.99482L12.4885 2.42282C12.8103 2.2614 13.1894 2.2614 13.5112 2.42282L14.6552 2.99482C14.9769 3.15624 15.3561 3.15624 15.6778 2.99482C16.4383 2.61457 17.3332 3.16707 17.3332 4.01749V9.75049H8.6665Z" fill="white"/>
<path d="M12.9998 19.4997C13.5981 19.4997 14.0832 19.0146 14.0832 18.4163C14.0832 17.818 13.5981 17.333 12.9998 17.333C12.4015 17.333 11.9165 17.818 11.9165 18.4163C11.9165 19.0146 12.4015 19.4997 12.9998 19.4997Z" fill="white"/>
</svg>
