<svg width="26" height="26" viewBox="0 0 26 26" fill="none" xmlns="http://www.w3.org/2000/svg">
<path opacity="0.35" d="M24.3024 9.65933C23.7867 9.02774 23.023 8.66699 22.2083 8.66699H3.79164C2.97698 8.66699 2.21323 9.02774 1.69756 9.65933C1.18081 10.2898 0.976061 11.1088 1.13639 11.9072L2.39306 18.1841C2.79714 20.2023 4.58356 21.667 6.64189 21.667H19.3581C21.4153 21.667 23.2028 20.2023 23.6069 18.1841L24.8636 11.9072C25.0239 11.1077 24.8191 10.2887 24.3024 9.65933Z" fill="white"/>
<path d="M17.3332 13.0003C17.3332 12.4023 16.8478 11.917 16.2498 11.917C15.6518 11.917 15.1665 12.4023 15.1665 13.0003C15.1665 13.2787 15.1665 17.0552 15.1665 17.3337C15.1665 17.9317 15.6518 18.417 16.2498 18.417C16.8478 18.417 17.3332 17.9317 17.3332 17.3337C17.3332 17.0552 17.3332 13.2787 17.3332 13.0003Z" fill="white"/>
<path d="M10.8332 13.0003C10.8332 12.4023 10.3478 11.917 9.74984 11.917C9.15184 11.917 8.6665 12.4023 8.6665 13.0003C8.6665 13.2787 8.6665 17.0552 8.6665 17.3337C8.6665 17.9317 9.15184 18.417 9.74984 18.417C10.3478 18.417 10.8332 17.9317 10.8332 17.3337C10.8332 17.0552 10.8332 13.2787 10.8332 13.0003Z" fill="white"/>
<path d="M9.45878 8.66699L12.1292 4.80166C12.335 4.50374 12.6492 4.35533 13.024 4.33366C13.3859 4.33366 13.7119 4.50699 13.9156 4.80599L16.5524 8.66699H19.1763L15.7042 3.58291C15.0997 2.69891 14.0998 2.16916 13.0284 2.16699C11.9894 2.17349 10.9549 2.68808 10.346 3.56991L6.8252 8.66699H9.45878Z" fill="white"/>
</svg>
