<svg width="26" height="26" viewBox="0 0 26 26" fill="none" xmlns="http://www.w3.org/2000/svg">
<path opacity="0.35" d="M13.0002 14.0833C15.9917 14.0833 18.4168 11.6582 18.4168 8.66667C18.4168 5.67512 15.9917 3.25 13.0002 3.25C10.0086 3.25 7.5835 5.67512 7.5835 8.66667C7.5835 11.6582 10.0086 14.0833 13.0002 14.0833Z" fill="white"/>
<path opacity="0.35" d="M24.9165 20.5837C24.9165 20.172 25.1017 19.8047 25.3931 19.5588C25.6521 19.3389 25.7658 18.9901 25.6466 18.6716C25.4365 18.1158 25.1386 17.6034 24.7691 17.1527C24.5611 16.8992 24.2123 16.8028 23.9068 16.9198C23.5406 17.0607 23.1171 17.0433 22.7498 16.831C22.3815 16.6187 22.154 16.259 22.0944 15.8701C22.0456 15.5516 21.7932 15.297 21.4758 15.2428C21.1855 15.193 20.8876 15.167 20.5831 15.167C20.2787 15.167 19.9808 15.193 19.6916 15.2428C19.3741 15.297 19.1217 15.5516 19.073 15.8701C19.0123 16.259 18.7848 16.6187 18.4165 16.831C18.0492 17.0433 17.6267 17.0607 17.2595 16.9198C16.954 16.8017 16.6051 16.8992 16.3971 17.1527C16.0266 17.6045 15.7287 18.1158 15.5196 18.6716C15.3994 18.9901 15.5131 19.3389 15.7731 19.5588C16.0646 19.8047 16.2498 20.172 16.2498 20.5837C16.2498 20.9953 16.0646 21.3626 15.7731 21.6085C15.5142 21.8284 15.4005 22.1772 15.5196 22.4957C15.7298 23.0515 16.0277 23.5639 16.3971 24.0146C16.6051 24.2681 16.954 24.3645 17.2595 24.2475C17.6256 24.1067 18.0492 24.124 18.4165 24.3363C18.7848 24.5487 19.0123 24.9083 19.0719 25.2972C19.1206 25.6157 19.3731 25.8703 19.6905 25.9245C19.9808 25.9743 20.2787 26.0003 20.5831 26.0003C20.8876 26.0003 21.1855 25.9743 21.4747 25.9245C21.7921 25.8703 22.0445 25.6157 22.0933 25.2972C22.1529 24.9072 22.3804 24.5487 22.7487 24.3363C23.116 24.124 23.5385 24.1067 23.9057 24.2475C24.2112 24.3656 24.5601 24.2681 24.7681 24.0146C25.1386 23.5628 25.4365 23.0515 25.6456 22.4957C25.7658 22.1783 25.6521 21.8284 25.392 21.6085C25.1017 21.3626 24.9165 20.9953 24.9165 20.5837ZM20.5831 22.7503C19.3861 22.7503 18.4165 21.7797 18.4165 20.5837C18.4165 19.3877 19.3861 18.417 20.5831 18.417C21.7802 18.417 22.7498 19.3877 22.7498 20.5837C22.7498 21.7797 21.7802 22.7503 20.5831 22.7503Z" fill="white"/>
<path d="M15.7733 21.6078C16.0648 21.3619 16.25 20.9947 16.25 20.583C16.25 20.1713 16.0648 19.8041 15.7733 19.5582C15.5144 19.3383 15.4007 18.9894 15.5198 18.6709C15.7029 18.1856 15.9651 17.7403 16.2717 17.333H6.5C4.70167 17.333 3.25 18.7847 3.25 20.583C3.25 22.3813 4.70167 23.833 6.5 23.833H16.2728C15.9651 23.4257 15.704 22.9815 15.5209 22.4951C15.4007 22.1777 15.5144 21.8278 15.7733 21.6078Z" fill="white"/>
<path d="M20.5832 22.7503C21.7798 22.7503 22.7498 21.7803 22.7498 20.5837C22.7498 19.387 21.7798 18.417 20.5832 18.417C19.3866 18.417 18.4165 19.387 18.4165 20.5837C18.4165 21.7803 19.3866 22.7503 20.5832 22.7503Z" fill="white"/>
<path d="M20.5832 22.7503C21.7798 22.7503 22.7498 21.7803 22.7498 20.5837C22.7498 19.387 21.7798 18.417 20.5832 18.417C19.3866 18.417 18.4165 19.387 18.4165 20.5837C18.4165 21.7803 19.3866 22.7503 20.5832 22.7503Z" fill="white"/>
</svg>
