<svg width="182" height="50" viewBox="0 0 182 50" fill="none" xmlns="http://www.w3.org/2000/svg">
<rect width="182" height="50" rx="8" fill="white"/>
<path d="M40.7159 25.9845C40.7316 24.7963 41.057 23.6313 41.6617 22.5978C42.2663 21.5644 43.1307 20.6961 44.1742 20.0737C43.5113 19.1553 42.6367 18.3995 41.6199 17.8662C40.6032 17.333 39.4723 17.0372 38.317 17.0021C35.8526 16.7512 33.4635 18.4326 32.2077 18.4326C30.9276 18.4326 28.9941 17.027 26.912 17.0686C25.5653 17.1108 24.2528 17.4907 23.1024 18.1712C21.952 18.8518 21.003 19.8098 20.3478 20.9519C17.5096 25.7187 19.6266 32.7242 22.3454 36.5773C23.7057 38.4641 25.2954 40.5716 27.3756 40.4969C29.4112 40.415 30.1715 39.2378 32.6286 39.2378C35.0629 39.2378 35.7762 40.4969 37.8986 40.4494C40.0829 40.415 41.4591 38.5542 42.7716 36.6496C43.749 35.3052 44.5011 33.8194 45 32.2472C43.731 31.7265 42.6481 30.855 41.8862 29.7414C41.1244 28.6277 40.7173 27.3211 40.7159 25.9845Z" fill="#121212"/>
<path d="M36.7098 14.4692C37.9008 13.0823 38.4875 11.2998 38.3454 9.5C36.5259 9.68538 34.8452 10.5289 33.6381 11.8626C33.048 12.5141 32.596 13.2721 32.308 14.0932C32.02 14.9143 31.9016 15.7824 31.9597 16.6478C32.8698 16.6569 33.7701 16.4656 34.5929 16.0882C35.4157 15.7108 36.1395 15.1573 36.7098 14.4692Z" fill="#121212"/>
<path d="M63.624 9.66C64.512 9.66 65.288 9.832 65.952 10.176C66.624 10.512 67.14 11 67.5 11.64C67.868 12.272 68.052 13.012 68.052 13.86C68.052 14.708 67.868 15.444 67.5 16.068C67.14 16.692 66.624 17.172 65.952 17.508C65.288 17.836 64.512 18 63.624 18H60.9V9.66H63.624ZM63.624 16.884C64.6 16.884 65.348 16.62 65.868 16.092C66.388 15.564 66.648 14.82 66.648 13.86C66.648 12.892 66.388 12.136 65.868 11.592C65.348 11.048 64.6 10.776 63.624 10.776H62.268V16.884H63.624ZM72.2758 18.108C71.6518 18.108 71.0878 17.968 70.5838 17.688C70.0798 17.4 69.6838 17 69.3958 16.488C69.1078 15.968 68.9638 15.368 68.9638 14.688C68.9638 14.016 69.1118 13.42 69.4078 12.9C69.7038 12.38 70.1078 11.98 70.6198 11.7C71.1318 11.42 71.7038 11.28 72.3358 11.28C72.9678 11.28 73.5398 11.42 74.0518 11.7C74.5638 11.98 74.9678 12.38 75.2638 12.9C75.5598 13.42 75.7078 14.016 75.7078 14.688C75.7078 15.36 75.5558 15.956 75.2518 16.476C74.9478 16.996 74.5318 17.4 74.0038 17.688C73.4838 17.968 72.9078 18.108 72.2758 18.108ZM72.2758 16.92C72.6278 16.92 72.9558 16.836 73.2598 16.668C73.5718 16.5 73.8238 16.248 74.0158 15.912C74.2078 15.576 74.3038 15.168 74.3038 14.688C74.3038 14.208 74.2118 13.804 74.0278 13.476C73.8438 13.14 73.5998 12.888 73.2958 12.72C72.9918 12.552 72.6638 12.468 72.3118 12.468C71.9598 12.468 71.6318 12.552 71.3278 12.72C71.0318 12.888 70.7958 13.14 70.6198 13.476C70.4438 13.804 70.3558 14.208 70.3558 14.688C70.3558 15.4 70.5358 15.952 70.8958 16.344C71.2638 16.728 71.7238 16.92 72.2758 16.92ZM85.9402 11.388L83.8882 18H82.4482L81.1162 13.116L79.7842 18H78.3442L76.2802 11.388H77.6722L79.0522 16.704L80.4562 11.388H81.8842L83.2282 16.68L84.5962 11.388H85.9402ZM90.2985 11.28C90.8185 11.28 91.2825 11.388 91.6905 11.604C92.1065 11.82 92.4305 12.14 92.6625 12.564C92.8945 12.988 93.0105 13.5 93.0105 14.1V18H91.6545V14.304C91.6545 13.712 91.5065 13.26 91.2105 12.948C90.9145 12.628 90.5105 12.468 89.9985 12.468C89.4865 12.468 89.0785 12.628 88.7745 12.948C88.4785 13.26 88.3305 13.712 88.3305 14.304V18H86.9625V11.388H88.3305V12.144C88.5545 11.872 88.8385 11.66 89.1825 11.508C89.5345 11.356 89.9065 11.28 90.2985 11.28ZM96.1235 9.12V18H94.7555V9.12H96.1235ZM100.788 18.108C100.164 18.108 99.5995 17.968 99.0955 17.688C98.5915 17.4 98.1955 17 97.9075 16.488C97.6195 15.968 97.4755 15.368 97.4755 14.688C97.4755 14.016 97.6235 13.42 97.9195 12.9C98.2155 12.38 98.6195 11.98 99.1315 11.7C99.6435 11.42 100.216 11.28 100.848 11.28C101.48 11.28 102.052 11.42 102.564 11.7C103.076 11.98 103.48 12.38 103.776 12.9C104.072 13.42 104.22 14.016 104.22 14.688C104.22 15.36 104.068 15.956 103.764 16.476C103.46 16.996 103.044 17.4 102.516 17.688C101.996 17.968 101.42 18.108 100.788 18.108ZM100.788 16.92C101.14 16.92 101.468 16.836 101.772 16.668C102.084 16.5 102.336 16.248 102.528 15.912C102.72 15.576 102.816 15.168 102.816 14.688C102.816 14.208 102.724 13.804 102.54 13.476C102.356 13.14 102.112 12.888 101.808 12.72C101.504 12.552 101.176 12.468 100.824 12.468C100.472 12.468 100.144 12.552 99.8395 12.72C99.5435 12.888 99.3075 13.14 99.1315 13.476C98.9555 13.804 98.8675 14.208 98.8675 14.688C98.8675 15.4 99.0475 15.952 99.4075 16.344C99.7755 16.728 100.236 16.92 100.788 16.92ZM105.116 14.664C105.116 14 105.252 13.412 105.524 12.9C105.804 12.388 106.18 11.992 106.652 11.712C107.132 11.424 107.66 11.28 108.236 11.28C108.756 11.28 109.208 11.384 109.592 11.592C109.984 11.792 110.296 12.044 110.528 12.348V11.388H111.908V18H110.528V17.016C110.296 17.328 109.98 17.588 109.58 17.796C109.18 18.004 108.724 18.108 108.212 18.108C107.644 18.108 107.124 17.964 106.652 17.676C106.18 17.38 105.804 16.972 105.524 16.452C105.252 15.924 105.116 15.328 105.116 14.664ZM110.528 14.688C110.528 14.232 110.432 13.836 110.24 13.5C110.056 13.164 109.812 12.908 109.508 12.732C109.204 12.556 108.876 12.468 108.524 12.468C108.172 12.468 107.844 12.556 107.54 12.732C107.236 12.9 106.988 13.152 106.796 13.488C106.612 13.816 106.52 14.208 106.52 14.664C106.52 15.12 106.612 15.52 106.796 15.864C106.988 16.208 107.236 16.472 107.54 16.656C107.852 16.832 108.18 16.92 108.524 16.92C108.876 16.92 109.204 16.832 109.508 16.656C109.812 16.48 110.056 16.224 110.24 15.888C110.432 15.544 110.528 15.144 110.528 14.688ZM113.249 14.664C113.249 14 113.385 13.412 113.657 12.9C113.937 12.388 114.313 11.992 114.785 11.712C115.265 11.424 115.797 11.28 116.381 11.28C116.813 11.28 117.237 11.376 117.653 11.568C118.077 11.752 118.413 12 118.661 12.312V9.12H120.041V18H118.661V17.004C118.437 17.324 118.125 17.588 117.725 17.796C117.333 18.004 116.881 18.108 116.369 18.108C115.793 18.108 115.265 17.964 114.785 17.676C114.313 17.38 113.937 16.972 113.657 16.452C113.385 15.924 113.249 15.328 113.249 14.664ZM118.661 14.688C118.661 14.232 118.565 13.836 118.373 13.5C118.189 13.164 117.945 12.908 117.641 12.732C117.337 12.556 117.009 12.468 116.657 12.468C116.305 12.468 115.977 12.556 115.673 12.732C115.369 12.9 115.121 13.152 114.929 13.488C114.745 13.816 114.653 14.208 114.653 14.664C114.653 15.12 114.745 15.52 114.929 15.864C115.121 16.208 115.369 16.472 115.673 16.656C115.985 16.832 116.313 16.92 116.657 16.92C117.009 16.92 117.337 16.832 117.641 16.656C117.945 16.48 118.189 16.224 118.373 15.888C118.565 15.544 118.661 15.144 118.661 14.688ZM127.823 18.108C127.199 18.108 126.635 17.968 126.131 17.688C125.627 17.4 125.231 17 124.943 16.488C124.655 15.968 124.511 15.368 124.511 14.688C124.511 14.016 124.659 13.42 124.955 12.9C125.251 12.38 125.655 11.98 126.167 11.7C126.679 11.42 127.251 11.28 127.883 11.28C128.515 11.28 129.087 11.42 129.599 11.7C130.111 11.98 130.515 12.38 130.811 12.9C131.107 13.42 131.255 14.016 131.255 14.688C131.255 15.36 131.103 15.956 130.799 16.476C130.495 16.996 130.079 17.4 129.551 17.688C129.031 17.968 128.455 18.108 127.823 18.108ZM127.823 16.92C128.175 16.92 128.503 16.836 128.807 16.668C129.119 16.5 129.371 16.248 129.563 15.912C129.755 15.576 129.851 15.168 129.851 14.688C129.851 14.208 129.759 13.804 129.575 13.476C129.391 13.14 129.147 12.888 128.843 12.72C128.539 12.552 128.211 12.468 127.859 12.468C127.507 12.468 127.179 12.552 126.875 12.72C126.579 12.888 126.343 13.14 126.167 13.476C125.991 13.804 125.903 14.208 125.903 14.688C125.903 15.4 126.083 15.952 126.443 16.344C126.811 16.728 127.271 16.92 127.823 16.92ZM135.943 11.28C136.463 11.28 136.927 11.388 137.335 11.604C137.751 11.82 138.075 12.14 138.307 12.564C138.539 12.988 138.655 13.5 138.655 14.1V18H137.299V14.304C137.299 13.712 137.151 13.26 136.855 12.948C136.559 12.628 136.155 12.468 135.643 12.468C135.131 12.468 134.723 12.628 134.419 12.948C134.123 13.26 133.975 13.712 133.975 14.304V18H132.607V11.388H133.975V12.144C134.199 11.872 134.483 11.66 134.827 11.508C135.179 11.356 135.551 11.28 135.943 11.28ZM145.113 12.504V16.164C145.113 16.412 145.169 16.592 145.281 16.704C145.401 16.808 145.601 16.86 145.881 16.86H146.721V18H145.641C145.025 18 144.553 17.856 144.225 17.568C143.897 17.28 143.733 16.812 143.733 16.164V12.504H142.953V11.388H143.733V9.744H145.113V11.388H146.721V12.504H145.113ZM151.402 11.28C151.906 11.28 152.354 11.388 152.746 11.604C153.146 11.82 153.458 12.14 153.682 12.564C153.914 12.988 154.03 13.5 154.03 14.1V18H152.674V14.304C152.674 13.712 152.526 13.26 152.23 12.948C151.934 12.628 151.53 12.468 151.018 12.468C150.506 12.468 150.098 12.628 149.794 12.948C149.498 13.26 149.35 13.712 149.35 14.304V18H147.982V9.12H149.35V12.156C149.582 11.876 149.874 11.66 150.226 11.508C150.586 11.356 150.978 11.28 151.402 11.28ZM161.835 14.532C161.835 14.78 161.819 15.004 161.787 15.204H156.735C156.775 15.732 156.971 16.156 157.323 16.476C157.675 16.796 158.107 16.956 158.619 16.956C159.355 16.956 159.875 16.648 160.179 16.032H161.655C161.455 16.64 161.091 17.14 160.563 17.532C160.043 17.916 159.395 18.108 158.619 18.108C157.987 18.108 157.419 17.968 156.915 17.688C156.419 17.4 156.027 17 155.739 16.488C155.459 15.968 155.319 15.368 155.319 14.688C155.319 14.008 155.455 13.412 155.727 12.9C156.007 12.38 156.395 11.98 156.891 11.7C157.395 11.42 157.971 11.28 158.619 11.28C159.243 11.28 159.799 11.416 160.287 11.688C160.775 11.96 161.155 12.344 161.427 12.84C161.699 13.328 161.835 13.892 161.835 14.532ZM160.407 14.1C160.399 13.596 160.219 13.192 159.867 12.888C159.515 12.584 159.079 12.432 158.559 12.432C158.087 12.432 157.683 12.584 157.347 12.888C157.011 13.184 156.811 13.588 156.747 14.1H160.407Z" fill="#121212"/>
<path d="M70.374 35.018H64.263L63.213 38H60.714L65.943 23.384H68.715L73.944 38H71.424L70.374 35.018ZM69.702 33.065L67.329 26.282L64.935 33.065H69.702ZM78.1416 28.13C78.5476 27.598 79.1006 27.15 79.8006 26.786C80.5006 26.422 81.2916 26.24 82.1736 26.24C83.1816 26.24 84.0986 26.492 84.9246 26.996C85.7646 27.486 86.4226 28.179 86.8986 29.075C87.3746 29.971 87.6126 31 87.6126 32.162C87.6126 33.324 87.3746 34.367 86.8986 35.291C86.4226 36.201 85.7646 36.915 84.9246 37.433C84.0986 37.937 83.1816 38.189 82.1736 38.189C81.2916 38.189 80.5076 38.014 79.8216 37.664C79.1356 37.3 78.5756 36.852 78.1416 36.32V43.502H75.7476V26.429H78.1416V28.13ZM85.1766 32.162C85.1766 31.364 85.0086 30.678 84.6726 30.104C84.3506 29.516 83.9166 29.075 83.3706 28.781C82.8386 28.473 82.2646 28.319 81.6486 28.319C81.0466 28.319 80.4726 28.473 79.9266 28.781C79.3946 29.089 78.9606 29.537 78.6246 30.125C78.3026 30.713 78.1416 31.406 78.1416 32.204C78.1416 33.002 78.3026 33.702 78.6246 34.304C78.9606 34.892 79.3946 35.34 79.9266 35.648C80.4726 35.956 81.0466 36.11 81.6486 36.11C82.2646 36.11 82.8386 35.956 83.3706 35.648C83.9166 35.326 84.3506 34.864 84.6726 34.262C85.0086 33.66 85.1766 32.96 85.1766 32.162ZM91.904 28.13C92.31 27.598 92.863 27.15 93.563 26.786C94.263 26.422 95.054 26.24 95.936 26.24C96.944 26.24 97.861 26.492 98.687 26.996C99.527 27.486 100.185 28.179 100.661 29.075C101.137 29.971 101.375 31 101.375 32.162C101.375 33.324 101.137 34.367 100.661 35.291C100.185 36.201 99.527 36.915 98.687 37.433C97.861 37.937 96.944 38.189 95.936 38.189C95.054 38.189 94.27 38.014 93.584 37.664C92.898 37.3 92.338 36.852 91.904 36.32V43.502H89.51V26.429H91.904V28.13ZM98.939 32.162C98.939 31.364 98.771 30.678 98.435 30.104C98.113 29.516 97.679 29.075 97.133 28.781C96.601 28.473 96.027 28.319 95.411 28.319C94.809 28.319 94.235 28.473 93.689 28.781C93.157 29.089 92.723 29.537 92.387 30.125C92.065 30.713 91.904 31.406 91.904 32.204C91.904 33.002 92.065 33.702 92.387 34.304C92.723 34.892 93.157 35.34 93.689 35.648C94.235 35.956 94.809 36.11 95.411 36.11C96.027 36.11 96.601 35.956 97.133 35.648C97.679 35.326 98.113 34.864 98.435 34.262C98.771 33.66 98.939 32.96 98.939 32.162ZM113.066 38.147C112.086 38.147 111.204 37.979 110.42 37.643C109.636 37.293 109.02 36.803 108.572 36.173C108.124 35.543 107.9 34.808 107.9 33.968H110.462C110.518 34.598 110.763 35.116 111.197 35.522C111.645 35.928 112.268 36.131 113.066 36.131C113.892 36.131 114.536 35.935 114.998 35.543C115.46 35.137 115.691 34.619 115.691 33.989C115.691 33.499 115.544 33.1 115.25 32.792C114.97 32.484 114.613 32.246 114.179 32.078C113.759 31.91 113.171 31.728 112.415 31.532C111.463 31.28 110.686 31.028 110.084 30.776C109.496 30.51 108.992 30.104 108.572 29.558C108.152 29.012 107.942 28.284 107.942 27.374C107.942 26.534 108.152 25.799 108.572 25.169C108.992 24.539 109.58 24.056 110.336 23.72C111.092 23.384 111.967 23.216 112.961 23.216C114.375 23.216 115.53 23.573 116.426 24.287C117.336 24.987 117.84 25.953 117.938 27.185H115.292C115.25 26.653 114.998 26.198 114.536 25.82C114.074 25.442 113.465 25.253 112.709 25.253C112.023 25.253 111.463 25.428 111.029 25.778C110.595 26.128 110.378 26.632 110.378 27.29C110.378 27.738 110.511 28.109 110.777 28.403C111.057 28.683 111.407 28.907 111.827 29.075C112.247 29.243 112.821 29.425 113.549 29.621C114.515 29.887 115.299 30.153 115.901 30.419C116.517 30.685 117.035 31.098 117.455 31.658C117.889 32.204 118.106 32.939 118.106 33.863C118.106 34.605 117.903 35.305 117.497 35.963C117.105 36.621 116.524 37.153 115.754 37.559C114.998 37.951 114.102 38.147 113.066 38.147ZM123.254 28.382V34.787C123.254 35.221 123.352 35.536 123.548 35.732C123.758 35.914 124.108 36.005 124.598 36.005H126.068V38H124.178C123.1 38 122.274 37.748 121.7 37.244C121.126 36.74 120.839 35.921 120.839 34.787V28.382H119.474V26.429H120.839V23.552H123.254V26.429H126.068V28.382H123.254ZM132.824 38.189C131.732 38.189 130.745 37.944 129.863 37.454C128.981 36.95 128.288 36.25 127.784 35.354C127.28 34.444 127.028 33.394 127.028 32.204C127.028 31.028 127.287 29.985 127.805 29.075C128.323 28.165 129.03 27.465 129.926 26.975C130.822 26.485 131.823 26.24 132.929 26.24C134.035 26.24 135.036 26.485 135.932 26.975C136.828 27.465 137.535 28.165 138.053 29.075C138.571 29.985 138.83 31.028 138.83 32.204C138.83 33.38 138.564 34.423 138.032 35.333C137.5 36.243 136.772 36.95 135.848 37.454C134.938 37.944 133.93 38.189 132.824 38.189ZM132.824 36.11C133.44 36.11 134.014 35.963 134.546 35.669C135.092 35.375 135.533 34.934 135.869 34.346C136.205 33.758 136.373 33.044 136.373 32.204C136.373 31.364 136.212 30.657 135.89 30.083C135.568 29.495 135.141 29.054 134.609 28.76C134.077 28.466 133.503 28.319 132.887 28.319C132.271 28.319 131.697 28.466 131.165 28.76C130.647 29.054 130.234 29.495 129.926 30.083C129.618 30.657 129.464 31.364 129.464 32.204C129.464 33.45 129.779 34.416 130.409 35.102C131.053 35.774 131.858 36.11 132.824 36.11ZM143.12 28.109C143.47 27.521 143.932 27.066 144.506 26.744C145.094 26.408 145.787 26.24 146.585 26.24V28.718H145.976C145.038 28.718 144.324 28.956 143.834 29.432C143.358 29.908 143.12 30.734 143.12 31.91V38H140.726V26.429H143.12V28.109ZM158.921 31.931C158.921 32.365 158.893 32.757 158.837 33.107H149.996C150.066 34.031 150.409 34.773 151.025 35.333C151.641 35.893 152.397 36.173 153.293 36.173C154.581 36.173 155.491 35.634 156.023 34.556H158.606C158.256 35.62 157.619 36.495 156.695 37.181C155.785 37.853 154.651 38.189 153.293 38.189C152.187 38.189 151.193 37.944 150.311 37.454C149.443 36.95 148.757 36.25 148.253 35.354C147.763 34.444 147.518 33.394 147.518 32.204C147.518 31.014 147.756 29.971 148.232 29.075C148.722 28.165 149.401 27.465 150.269 26.975C151.151 26.485 152.159 26.24 153.293 26.24C154.385 26.24 155.358 26.478 156.212 26.954C157.066 27.43 157.731 28.102 158.207 28.97C158.683 29.824 158.921 30.811 158.921 31.931ZM156.422 31.175C156.408 30.293 156.093 29.586 155.477 29.054C154.861 28.522 154.098 28.256 153.188 28.256C152.362 28.256 151.655 28.522 151.067 29.054C150.479 29.572 150.129 30.279 150.017 31.175H156.422Z" fill="#121212"/>
</svg>
