<svg width="182" height="50" viewBox="0 0 182 50" fill="none" xmlns="http://www.w3.org/2000/svg">
<rect width="182" height="50" rx="8" fill="white"/>
<path d="M22.3996 24.1925L7.13281 40.0089C7.13425 40.0117 7.13425 40.0159 7.13568 40.0187C7.60457 41.7361 9.21054 43 11.1176 43C11.8805 43 12.596 42.7984 13.2097 42.4457L13.2584 42.4177L30.4423 32.739L22.3996 24.1925Z" fill="#EA4335"/>
<path d="M37.8541 21.4964L37.8397 21.4866L30.4207 17.2889L22.0625 24.5491L30.4508 32.7344L37.8297 28.5787C39.1231 27.8957 40.0021 26.5646 40.0021 25.0305C40.0021 23.5049 39.136 22.1808 37.8541 21.4964Z" fill="#FBBC04"/>
<path d="M7.14052 9.9889C7.04875 10.3192 7 10.6663 7 11.0247V38.9734C7 39.3318 7.04875 39.6789 7.14196 40.0078L22.9321 24.5959L7.14052 9.9889Z" fill="#4285F4"/>
<path d="M22.5129 25L30.4137 17.2892L13.2498 7.5754C12.6261 7.21008 11.8977 7.00013 11.1191 7.00013C9.21197 7.00013 7.60313 8.26684 7.13425 9.98564C7.13425 9.98704 7.13281 9.98844 7.13281 9.98984L22.5129 25Z" fill="#34A853"/>
<path d="M62.26 12.06C62.028 11.572 61.692 11.196 61.252 10.932C60.812 10.66 60.3 10.524 59.716 10.524C59.132 10.524 58.604 10.66 58.132 10.932C57.668 11.196 57.3 11.58 57.028 12.084C56.764 12.58 56.632 13.156 56.632 13.812C56.632 14.468 56.764 15.044 57.028 15.54C57.3 16.036 57.668 16.42 58.132 16.692C58.604 16.956 59.132 17.088 59.716 17.088C60.532 17.088 61.204 16.844 61.732 16.356C62.26 15.868 62.568 15.208 62.656 14.376H59.32V13.488H63.82V14.328C63.756 15.016 63.54 15.648 63.172 16.224C62.804 16.792 62.32 17.244 61.72 17.58C61.12 17.908 60.452 18.072 59.716 18.072C58.94 18.072 58.232 17.892 57.592 17.532C56.952 17.164 56.444 16.656 56.068 16.008C55.7 15.36 55.516 14.628 55.516 13.812C55.516 12.996 55.7 12.264 56.068 11.616C56.444 10.96 56.952 10.452 57.592 10.092C58.232 9.724 58.94 9.54 59.716 9.54C60.604 9.54 61.388 9.76 62.068 10.2C62.756 10.64 63.256 11.26 63.568 12.06H62.26ZM66.3558 10.524V13.32H69.4038V14.22H66.3558V17.1H69.7638V18H65.2638V9.624H69.7638V10.524H66.3558ZM76.5642 9.636V10.524H74.2842V18H73.1922V10.524H70.9002V9.636H76.5642ZM82.1996 9.636V18H81.1076V9.636H82.1996ZM89.2087 9.636V10.524H86.9287V18H85.8367V10.524H83.5447V9.636H89.2087ZM97.5441 18.084C96.7681 18.084 96.0601 17.904 95.4201 17.544C94.7801 17.176 94.2721 16.668 93.8961 16.02C93.5281 15.364 93.3441 14.628 93.3441 13.812C93.3441 12.996 93.5281 12.264 93.8961 11.616C94.2721 10.96 94.7801 10.452 95.4201 10.092C96.0601 9.724 96.7681 9.54 97.5441 9.54C98.3281 9.54 99.0401 9.724 99.6801 10.092C100.32 10.452 100.824 10.956 101.192 11.604C101.56 12.252 101.744 12.988 101.744 13.812C101.744 14.636 101.56 15.372 101.192 16.02C100.824 16.668 100.32 17.176 99.6801 17.544C99.0401 17.904 98.3281 18.084 97.5441 18.084ZM97.5441 17.136C98.1281 17.136 98.6521 17 99.1161 16.728C99.5881 16.456 99.9561 16.068 100.22 15.564C100.492 15.06 100.628 14.476 100.628 13.812C100.628 13.14 100.492 12.556 100.22 12.06C99.9561 11.556 99.5921 11.168 99.1281 10.896C98.6641 10.624 98.1361 10.488 97.5441 10.488C96.9521 10.488 96.4241 10.624 95.9601 10.896C95.4961 11.168 95.1281 11.556 94.8561 12.06C94.5921 12.556 94.4601 13.14 94.4601 13.812C94.4601 14.476 94.5921 15.06 94.8561 15.564C95.1281 16.068 95.4961 16.456 95.9601 16.728C96.4321 17 96.9601 17.136 97.5441 17.136ZM109.762 18H108.67L104.278 11.34V18H103.186V9.624H104.278L108.67 16.272V9.624H109.762V18Z" fill="#121212"/>
<path d="M67.705 27.605C67.299 26.751 66.711 26.093 65.941 25.631C65.171 25.155 64.275 24.917 63.253 24.917C62.231 24.917 61.307 25.155 60.481 25.631C59.669 26.093 59.025 26.765 58.549 27.647C58.087 28.515 57.856 29.523 57.856 30.671C57.856 31.819 58.087 32.827 58.549 33.695C59.025 34.563 59.669 35.235 60.481 35.711C61.307 36.173 62.231 36.404 63.253 36.404C64.681 36.404 65.857 35.977 66.781 35.123C67.705 34.269 68.244 33.114 68.398 31.658H62.56V30.104H70.435V31.574C70.323 32.778 69.945 33.884 69.301 34.892C68.657 35.886 67.81 36.677 66.76 37.265C65.71 37.839 64.541 38.126 63.253 38.126C61.895 38.126 60.656 37.811 59.536 37.181C58.416 36.537 57.527 35.648 56.869 34.514C56.225 33.38 55.903 32.099 55.903 30.671C55.903 29.243 56.225 27.962 56.869 26.828C57.527 25.68 58.416 24.791 59.536 24.161C60.656 23.517 61.895 23.195 63.253 23.195C64.807 23.195 66.179 23.58 67.369 24.35C68.573 25.12 69.448 26.205 69.994 27.605H67.705ZM77.5107 38.189C76.4327 38.189 75.4527 37.944 74.5707 37.454C73.7027 36.964 73.0167 36.271 72.5127 35.375C72.0227 34.465 71.7777 33.415 71.7777 32.225C71.7777 31.049 72.0297 30.013 72.5337 29.117C73.0517 28.207 73.7517 27.514 74.6337 27.038C75.5157 26.548 76.5027 26.303 77.5947 26.303C78.6867 26.303 79.6737 26.548 80.5557 27.038C81.4377 27.514 82.1307 28.2 82.6347 29.096C83.1527 29.992 83.4117 31.035 83.4117 32.225C83.4117 33.415 83.1457 34.465 82.6137 35.375C82.0957 36.271 81.3887 36.964 80.4927 37.454C79.5967 37.944 78.6027 38.189 77.5107 38.189ZM77.5107 36.509C78.1967 36.509 78.8407 36.348 79.4427 36.026C80.0447 35.704 80.5277 35.221 80.8917 34.577C81.2697 33.933 81.4587 33.149 81.4587 32.225C81.4587 31.301 81.2767 30.517 80.9127 29.873C80.5487 29.229 80.0727 28.753 79.4847 28.445C78.8967 28.123 78.2597 27.962 77.5737 27.962C76.8737 27.962 76.2297 28.123 75.6417 28.445C75.0677 28.753 74.6057 29.229 74.2557 29.873C73.9057 30.517 73.7307 31.301 73.7307 32.225C73.7307 33.163 73.8987 33.954 74.2347 34.598C74.5847 35.242 75.0467 35.725 75.6207 36.047C76.1947 36.355 76.8247 36.509 77.5107 36.509ZM90.4733 38.189C89.3953 38.189 88.4153 37.944 87.5333 37.454C86.6653 36.964 85.9793 36.271 85.4753 35.375C84.9853 34.465 84.7403 33.415 84.7403 32.225C84.7403 31.049 84.9923 30.013 85.4963 29.117C86.0143 28.207 86.7143 27.514 87.5963 27.038C88.4783 26.548 89.4653 26.303 90.5573 26.303C91.6493 26.303 92.6363 26.548 93.5183 27.038C94.4003 27.514 95.0933 28.2 95.5973 29.096C96.1153 29.992 96.3743 31.035 96.3743 32.225C96.3743 33.415 96.1083 34.465 95.5763 35.375C95.0583 36.271 94.3513 36.964 93.4553 37.454C92.5593 37.944 91.5653 38.189 90.4733 38.189ZM90.4733 36.509C91.1593 36.509 91.8033 36.348 92.4053 36.026C93.0073 35.704 93.4903 35.221 93.8543 34.577C94.2323 33.933 94.4213 33.149 94.4213 32.225C94.4213 31.301 94.2393 30.517 93.8753 29.873C93.5113 29.229 93.0353 28.753 92.4473 28.445C91.8593 28.123 91.2223 27.962 90.5363 27.962C89.8363 27.962 89.1923 28.123 88.6043 28.445C88.0303 28.753 87.5683 29.229 87.2183 29.873C86.8683 30.517 86.6933 31.301 86.6933 32.225C86.6933 33.163 86.8613 33.954 87.1973 34.598C87.5473 35.242 88.0093 35.725 88.5833 36.047C89.1573 36.355 89.7873 36.509 90.4733 36.509ZM103.163 26.303C104.157 26.303 105.025 26.52 105.767 26.954C106.523 27.388 107.083 27.934 107.447 28.592V26.492H109.379V38.252C109.379 39.302 109.155 40.233 108.707 41.045C108.259 41.871 107.615 42.515 106.775 42.977C105.949 43.439 104.983 43.67 103.877 43.67C102.365 43.67 101.105 43.313 100.097 42.599C99.089 41.885 98.494 40.912 98.312 39.68H100.202C100.412 40.38 100.846 40.94 101.504 41.36C102.162 41.794 102.953 42.011 103.877 42.011C104.927 42.011 105.781 41.682 106.439 41.024C107.111 40.366 107.447 39.442 107.447 38.252V35.837C107.069 36.509 106.509 37.069 105.767 37.517C105.025 37.965 104.157 38.189 103.163 38.189C102.141 38.189 101.21 37.937 100.37 37.433C99.544 36.929 98.893 36.222 98.417 35.312C97.941 34.402 97.703 33.366 97.703 32.204C97.703 31.028 97.941 29.999 98.417 29.117C98.893 28.221 99.544 27.528 100.37 27.038C101.21 26.548 102.141 26.303 103.163 26.303ZM107.447 32.225C107.447 31.357 107.272 30.601 106.922 29.957C106.572 29.313 106.096 28.823 105.494 28.487C104.906 28.137 104.255 27.962 103.541 27.962C102.827 27.962 102.176 28.13 101.588 28.466C101 28.802 100.531 29.292 100.181 29.936C99.831 30.58 99.656 31.336 99.656 32.204C99.656 33.086 99.831 33.856 100.181 34.514C100.531 35.158 101 35.655 101.588 36.005C102.176 36.341 102.827 36.509 103.541 36.509C104.255 36.509 104.906 36.341 105.494 36.005C106.096 35.655 106.572 35.158 106.922 34.514C107.272 33.856 107.447 33.093 107.447 32.225ZM114.049 22.46V38H112.138V22.46H114.049ZM127.336 31.805C127.336 32.169 127.315 32.554 127.273 32.96H118.075C118.145 34.094 118.53 34.983 119.23 35.627C119.944 36.257 120.805 36.572 121.813 36.572C122.639 36.572 123.325 36.383 123.871 36.005C124.431 35.613 124.823 35.095 125.047 34.451H127.105C126.797 35.557 126.181 36.46 125.257 37.16C124.333 37.846 123.185 38.189 121.813 38.189C120.721 38.189 119.741 37.944 118.873 37.454C118.019 36.964 117.347 36.271 116.857 35.375C116.367 34.465 116.122 33.415 116.122 32.225C116.122 31.035 116.36 29.992 116.836 29.096C117.312 28.2 117.977 27.514 118.831 27.038C119.699 26.548 120.693 26.303 121.813 26.303C122.905 26.303 123.871 26.541 124.711 27.017C125.551 27.493 126.195 28.151 126.643 28.991C127.105 29.817 127.336 30.755 127.336 31.805ZM125.362 31.406C125.362 30.678 125.201 30.055 124.879 29.537C124.557 29.005 124.116 28.606 123.556 28.34C123.01 28.06 122.401 27.92 121.729 27.92C120.763 27.92 119.937 28.228 119.251 28.844C118.579 29.46 118.194 30.314 118.096 31.406H125.362ZM144.303 27.647C144.303 28.865 143.883 29.88 143.043 30.692C142.217 31.49 140.95 31.889 139.242 31.889H136.428V38H134.517V23.363H139.242C140.894 23.363 142.147 23.762 143.001 24.56C143.869 25.358 144.303 26.387 144.303 27.647ZM139.242 30.314C140.306 30.314 141.09 30.083 141.594 29.621C142.098 29.159 142.35 28.501 142.35 27.647C142.35 25.841 141.314 24.938 139.242 24.938H136.428V30.314H139.242ZM148.12 22.46V38H146.209V22.46H148.12ZM150.193 32.204C150.193 31.028 150.431 29.999 150.907 29.117C151.383 28.221 152.034 27.528 152.86 27.038C153.7 26.548 154.631 26.303 155.653 26.303C156.661 26.303 157.536 26.52 158.278 26.954C159.02 27.388 159.573 27.934 159.937 28.592V26.492H161.869V38H159.937V35.858C159.559 36.53 158.992 37.09 158.236 37.538C157.494 37.972 156.626 38.189 155.632 38.189C154.61 38.189 153.686 37.937 152.86 37.433C152.034 36.929 151.383 36.222 150.907 35.312C150.431 34.402 150.193 33.366 150.193 32.204ZM159.937 32.225C159.937 31.357 159.762 30.601 159.412 29.957C159.062 29.313 158.586 28.823 157.984 28.487C157.396 28.137 156.745 27.962 156.031 27.962C155.317 27.962 154.666 28.13 154.078 28.466C153.49 28.802 153.021 29.292 152.671 29.936C152.321 30.58 152.146 31.336 152.146 32.204C152.146 33.086 152.321 33.856 152.671 34.514C153.021 35.158 153.49 35.655 154.078 36.005C154.666 36.341 155.317 36.509 156.031 36.509C156.745 36.509 157.396 36.341 157.984 36.005C158.586 35.655 159.062 35.158 159.412 34.514C159.762 33.856 159.937 33.093 159.937 32.225ZM174.54 26.492L167.61 43.418H165.636L167.904 37.874L163.263 26.492H165.384L168.996 35.816L172.566 26.492H174.54Z" fill="#121212"/>
</svg>
