<svg width="22" height="22" viewBox="0 0 22 22" fill="none" xmlns="http://www.w3.org/2000/svg">
<path d="M12.8346 8.71094L19.5171 12.8327C18.6761 16.7634 15.1831 19.7109 11.0013 19.7109C6.19201 19.7109 2.29297 15.8119 2.29297 11.0026C2.29297 10.6937 2.30901 10.388 2.34064 10.0873L7.32043 8.71094H12.8346Z" fill="#BDBDBD"/>
<path d="M10.9987 2.28906C8.91236 2.28906 6.99882 3.02469 5.49916 4.24798L4.58203 5.95573V7.33073H8.2487L9.6237 9.6224H10.9987L11.457 9.16406H13.7487L14.6654 10.0807V11.4557L16.0445 13.6961C16.6289 14.1191 17.1775 14.2057 17.4727 14.2057C18.3137 14.2057 19.0172 13.5059 19.5145 12.8275C19.6424 12.2335 19.707 11.6299 19.707 10.9974C19.707 6.1881 15.808 2.28906 10.9987 2.28906Z" fill="#9E9E9E"/>
<path d="M2.33984 10.0841C2.43747 11.6246 3.50447 13.7494 5.04218 13.7494C5.32864 13.7494 5.50051 13.9158 5.50051 14.2078C5.50051 15.4109 6.53176 16.0411 7.44843 16.0411C8.9953 16.0411 9.30972 15.6373 9.56822 15.4109C10.0266 15.0098 10.0838 14.1505 10.0838 13.7494C10.0838 12.8328 9.62551 12.8328 9.62551 11.9161C9.62551 11.6943 9.62551 10.9994 10.5422 10.9994C10.8186 10.9994 10.9446 10.4985 11.4089 10.0328C11.5853 9.85542 11.903 9.62442 12.1463 9.62442C12.8338 9.62442 12.8338 10.0827 12.8338 10.5411C12.8338 12.3744 14.5618 12.5811 14.6429 12.7929C14.7245 13.0046 14.6672 13.7494 15.7557 13.7494C16.2141 13.7494 16.5005 13.5042 16.5005 13.2911C16.5005 12.8328 16.1902 12.7163 16.0422 12.6609C15.8813 12.6004 15.5838 12.3744 15.5838 11.9161C15.5838 11.5723 15.813 11.4577 16.2713 11.4577C16.9588 11.4577 16.7297 11.9161 17.4745 11.9161C17.7508 11.9161 18.3338 11.8015 18.3338 10.8275C18.3338 10.2555 17.8182 10.0438 17.4745 9.91087C17.1014 9.7665 16.8209 9.58087 16.3859 8.76504C16.0807 8.19304 14.7827 7.77642 14.6672 7.33275C14.3234 6.01504 13.7198 5.49942 12.8338 5.49942C12.2976 5.49942 11.7641 5.86013 11.6018 6.35146C11.4529 6.80154 11.4561 7.21038 11.4556 7.55046C11.4552 7.84883 11.4084 8.24942 11.2581 8.39975C11.0587 8.59958 10.8364 8.71737 10.5422 8.70775C9.99218 8.68988 9.62551 8.30671 9.62551 7.84838C9.62551 7.16088 10.5422 6.87442 10.5422 5.90046C10.5422 5.27025 10.1201 4.92971 9.71443 4.71796C9.46372 4.63271 9.20247 4.58275 8.93801 4.58275C8.25051 4.58275 7.08772 4.47779 5.64809 5.91742C5.42718 6.13787 5.24889 6.41608 5.18059 6.41608C4.83455 6.41608 5.22276 4.92787 5.50097 4.25C3.76984 5.66533 2.58459 7.73883 2.33984 10.0841ZM18.1808 7.29562C17.9007 6.68008 17.3319 6.30058 16.9103 6.44771C16.4886 6.59483 16.374 7.21312 16.6541 7.82821C16.9341 8.44329 17.5029 8.82325 17.9246 8.67567C18.3462 8.529 18.4608 7.91071 18.1808 7.29562Z" fill="#757575"/>
<path d="M4.58333 8.25C4.46178 8.25 4.3452 8.29829 4.25924 8.38424C4.17329 8.4702 4.125 8.58678 4.125 8.70833C4.125 8.82989 4.17329 8.94647 4.25924 9.03242C4.3452 9.11838 4.46178 9.16667 4.58333 9.16667C4.70489 9.16667 4.82147 9.11838 4.90742 9.03242C4.99338 8.94647 5.04167 8.82989 5.04167 8.70833C5.04167 8.58678 4.99338 8.4702 4.90742 8.38424C4.82147 8.29829 4.70489 8.25 4.58333 8.25ZM5.72917 10.0833C5.63888 10.0833 5.54948 10.1011 5.46607 10.1357C5.38266 10.1702 5.30687 10.2209 5.24303 10.2847C5.17919 10.3485 5.12855 10.4243 5.094 10.5077C5.05945 10.5911 5.04167 10.6805 5.04167 10.7708C5.04167 10.8611 5.05945 10.9505 5.094 11.0339C5.12855 11.1173 5.17919 11.1931 5.24303 11.257C5.30687 11.3208 5.38266 11.3714 5.46607 11.406C5.54948 11.4406 5.63888 11.4583 5.72917 11.4583C5.81945 11.4583 5.90885 11.4406 5.99226 11.406C6.07567 11.3714 6.15146 11.3208 6.2153 11.257C6.27914 11.1931 6.32978 11.1173 6.36433 11.0339C6.39888 10.9505 6.41667 10.8611 6.41667 10.7708C6.41667 10.6805 6.39888 10.5911 6.36433 10.5077C6.32978 10.4243 6.27914 10.3485 6.2153 10.2847C6.15146 10.2209 6.07567 10.1702 5.99226 10.1357C5.90885 10.1011 5.81945 10.0833 5.72917 10.0833ZM7.79167 8.70833C7.54855 8.70833 7.31539 8.80491 7.14349 8.97682C6.97158 9.14873 6.875 9.38188 6.875 9.625C6.875 9.86812 6.97158 10.1013 7.14349 10.2732C7.31539 10.4451 7.54855 10.5417 7.79167 10.5417C8.03478 10.5417 8.26794 10.4451 8.43985 10.2732C8.61176 10.1013 8.70833 9.86812 8.70833 9.625C8.70833 9.38188 8.61176 9.14873 8.43985 8.97682C8.26794 8.80491 8.03478 8.70833 7.79167 8.70833Z" fill="#838383"/>
</svg>
