<svg width="22" height="22" viewBox="0 0 22 22" fill="none" xmlns="http://www.w3.org/2000/svg">
<path d="M5.04102 5.54102C5.04102 5.26487 5.26487 5.04102 5.54102 5.04102H16.4577C16.7338 5.04102 16.9577 5.26487 16.9577 5.54102V16.4577C16.9577 16.7338 16.7338 16.9577 16.4577 16.9577H5.54102C5.26487 16.9577 5.04102 16.7338 5.04102 16.4577V5.54102Z" fill="#FF9800"/>
<path d="M3.10356 11.3535C2.90829 11.1583 2.90829 10.8417 3.10355 10.6464L10.6464 3.10337C10.8416 2.9081 11.1582 2.90809 11.3535 3.10335L18.8965 10.6462C19.0918 10.8414 19.0918 11.158 18.8966 11.3533L11.3537 18.8963C11.1585 19.0916 10.8419 19.0916 10.6466 18.8964L3.10356 11.3535Z" fill="#FF9800"/>
<path d="M5.95898 11.0007C5.95898 13.7859 8.21536 16.0423 11.0007 16.0423C13.7855 16.0423 16.0423 13.7859 16.0423 11.0007C16.0423 8.21536 13.7855 5.95898 11.0007 5.95898C8.21536 5.95898 5.95898 8.21536 5.95898 11.0007Z" fill="#FFEB3B"/>
</svg>
