<svg width="22" height="22" viewBox="0 0 22 22" fill="none" xmlns="http://www.w3.org/2000/svg">
<path d="M10.9988 1.83594C6.72898 1.83594 3.15169 4.75965 2.13281 8.71094H19.8653C18.8459 4.75965 15.2686 1.83594 10.9988 1.83594Z" fill="#FFAB00"/>
<path d="M4.95131 17.8776H17.0495C17.7938 17.2222 18.4304 16.4494 18.9305 15.5859H3.07031C3.57035 16.4494 4.20652 17.2222 4.95131 17.8776Z" fill="#FB4469"/>
<path d="M3.06873 15.5807H18.9294C19.3405 14.8712 19.6554 14.1021 19.8653 13.2891H2.13281C2.34227 14.1021 2.6576 14.8712 3.06873 15.5807Z" fill="#FB5A5C"/>
<path d="M2.1327 13.2917H19.8652C20.054 12.5579 20.1654 11.7929 20.1654 11H1.83203C1.83203 11.7929 1.94341 12.5579 2.1327 13.2917Z" fill="#FC6F50"/>
<path d="M20.1654 11.0026C20.1654 10.2097 20.054 9.44473 19.8647 8.71094H2.1327C1.94341 9.44473 1.83203 10.2097 1.83203 11.0026H20.1654Z" fill="#FB8447"/>
<path d="M4.94922 17.875C6.56439 19.2972 8.6773 20.1667 10.9983 20.1667C13.3193 20.1667 15.4327 19.2972 17.0474 17.875H4.94922Z" fill="#FC2F75"/>
</svg>
