<svg width="200" height="200" viewBox="0 0 200 200" fill="none" xmlns="http://www.w3.org/2000/svg">
<rect width="200" height="200" rx="8" fill="#EBEBEB"/>
<path opacity="0.35" d="M160 40C160 38.0109 159.21 36.1032 157.803 34.6967C156.397 33.2902 154.489 32.5 152.5 32.5C142.554 32.5 133.016 36.4509 125.984 43.4835C118.951 50.5161 115 60.0544 115 70V96.685C114.996 99.837 115.985 102.91 117.827 105.468C119.669 108.026 122.269 109.939 125.26 110.935L130 112.517V122.5H160V40Z" fill="#AAAAAA"/>
<path d="M145 167.5C148.978 167.5 152.794 165.92 155.607 163.107C158.42 160.294 160 156.478 160 152.5V122.5H130V152.5C130 156.478 131.58 160.294 134.393 163.107C137.206 165.92 141.022 167.5 145 167.5Z" fill="#AAAAAA"/>
<path d="M62.5 167.5C66.4782 167.5 70.2936 165.92 73.1066 163.107C75.9196 160.294 77.5 156.478 77.5 152.5V122.5H47.5V152.5C47.5 156.478 49.0804 160.294 51.8934 163.107C54.7064 165.92 58.5218 167.5 62.5 167.5Z" fill="#AAAAAA"/>
<path opacity="0.35" d="M47.5 98.62V122.5H77.5V98.62C81.8779 97.0838 85.6715 94.2276 88.358 90.445C91.0446 86.6623 92.4917 82.1396 92.5 77.5V40C92.5 38.0109 91.7098 36.1032 90.3033 34.6967C88.8968 33.2902 86.9891 32.5 85 32.5C83.0109 32.5 81.1032 33.2902 79.6967 34.6967C78.2902 36.1032 77.5 38.0109 77.5 40V70C77.5 70.9946 77.1049 71.9484 76.4017 72.6517C75.6984 73.3549 74.7446 73.75 73.75 73.75C72.7554 73.75 71.8016 73.3549 71.0983 72.6517C70.3951 71.9484 70 70.9946 70 70V40C70 38.0109 69.2098 36.1032 67.8033 34.6967C66.3968 33.2902 64.4891 32.5 62.5 32.5C60.5109 32.5 58.6032 33.2902 57.1967 34.6967C55.7902 36.1032 55 38.0109 55 40V70C55 70.9946 54.6049 71.9484 53.9016 72.6517C53.1984 73.3549 52.2446 73.75 51.25 73.75C50.2554 73.75 49.3016 73.3549 48.5984 72.6517C47.8951 71.9484 47.5 70.9946 47.5 70V40C47.5 38.0109 46.7098 36.1032 45.3033 34.6967C43.8968 33.2902 41.9891 32.5 40 32.5C38.0109 32.5 36.1032 33.2902 34.6967 34.6967C33.2902 36.1032 32.5 38.0109 32.5 40V77.5C32.5083 82.1396 33.9554 86.6623 36.642 90.445C39.3285 94.2276 43.1221 97.0838 47.5 98.62Z" fill="#AAAAAA"/>
</svg>
