<svg width="29" height="28" viewBox="0 0 29 28" fill="none" xmlns="http://www.w3.org/2000/svg">
<g clip-path="url(#clip0_195_1133)">
<path opacity="0.35" d="M27.0938 27.3093L24.3999 21.5565C25.3216 20.9253 25.9271 19.8672 25.9271 18.6667V7C25.9271 5.06683 24.3602 3.5 22.4271 3.5H6.09375C4.16058 3.5 2.59375 5.06683 2.59375 7V18.6667C2.59375 20.5998 4.16058 22.1667 6.09375 22.1667H17.7604V27.3093H27.0938Z" fill="white"/>
<path d="M9.59505 12.8307C10.8837 12.8307 11.9284 11.7861 11.9284 10.4974C11.9284 9.20873 10.8837 8.16406 9.59505 8.16406C8.30639 8.16406 7.26172 9.20873 7.26172 10.4974C7.26172 11.7861 8.30639 12.8307 9.59505 12.8307Z" fill="white"/>
<path d="M12.513 17.5H6.67969C5.71369 17.5 4.92969 16.716 4.92969 15.75C4.92969 14.784 5.71369 14 6.67969 14H12.513C13.479 14 14.263 14.784 14.263 15.75C14.263 16.716 13.479 17.5 12.513 17.5Z" fill="white"/>
<path d="M22.4271 9.33333H17.7604C17.1164 9.33333 16.5938 8.81067 16.5938 8.16667C16.5938 7.52267 17.1164 7 17.7604 7H22.4271C23.0711 7 23.5938 7.52267 23.5938 8.16667C23.5938 8.81067 23.0711 9.33333 22.4271 9.33333Z" fill="white"/>
<path d="M22.4271 13.9974H17.7604C17.1164 13.9974 16.5938 13.4747 16.5938 12.8307C16.5938 12.1867 17.1164 11.6641 17.7604 11.6641H22.4271C23.0711 11.6641 23.5938 12.1867 23.5938 12.8307C23.5938 13.4747 23.0711 13.9974 22.4271 13.9974Z" fill="white"/>
<path d="M22.2551 16.8916L27.9857 26.2132C28.4641 26.9902 27.9041 27.9912 26.9917 27.9912H15.5316C14.6192 27.9912 14.0604 26.9914 14.5376 26.2132L20.2682 16.8916C20.7221 16.1507 21.8001 16.1507 22.2551 16.8916ZM21.2552 24.5356C20.3896 24.5356 20.1912 25.3744 20.1912 25.6871C20.1912 26.0067 20.3662 26.8246 21.2552 26.8246C22.1442 26.8246 22.3297 26.0067 22.3297 25.6871C22.3309 25.3744 22.1209 24.5356 21.2552 24.5356ZM21.2611 23.6617C21.8024 23.6617 22.2411 23.2231 22.2411 22.6817V19.9004C22.2411 19.3591 21.8024 18.9204 21.2611 18.9204C20.7197 18.9204 20.2811 19.3591 20.2811 19.9004V22.6817C20.2811 23.2231 20.7197 23.6617 21.2611 23.6617Z" fill="white"/>
</g>
<defs>
<clipPath id="clip0_195_1133">
<rect width="28" height="28" fill="white" transform="translate(0.261719)"/>
</clipPath>
</defs>
</svg>
