<svg width="26" height="26" viewBox="0 0 26 26" fill="none" xmlns="http://www.w3.org/2000/svg">
<path opacity="0.35" d="M18.4168 4.33301H7.5835C5.78841 4.33301 4.3335 5.78792 4.3335 7.58301V19.4997H21.6668V7.58301C21.6668 5.78792 20.2119 4.33301 18.4168 4.33301Z" fill="white"/>
<path d="M21.6665 16.25H16.7319C16.3452 16.25 15.9931 16.4602 15.7981 16.7949C15.238 17.7634 14.1991 18.4167 12.9998 18.4167C11.8006 18.4167 10.7617 17.7634 10.2005 16.7949C10.0066 16.4602 9.6545 16.25 9.26775 16.25H4.33317C3.13609 16.25 2.1665 17.2196 2.1665 18.4167V20.5833C2.1665 21.7804 3.13609 22.75 4.33317 22.75H21.6665C22.8636 22.75 23.8332 21.7804 23.8332 20.5833V18.4167C23.8332 17.2196 22.8636 16.25 21.6665 16.25Z" fill="white"/>
<path d="M13.0002 9.74967H8.66683C8.06883 9.74967 7.5835 9.26434 7.5835 8.66634C7.5835 8.06834 8.06883 7.58301 8.66683 7.58301H13.0002C13.5982 7.58301 14.0835 8.06834 14.0835 8.66634C14.0835 9.26434 13.5982 9.74967 13.0002 9.74967Z" fill="white"/>
<path d="M13.0002 14.0837H8.66683C8.06883 14.0837 7.5835 13.5983 7.5835 13.0003C7.5835 12.4023 8.06883 11.917 8.66683 11.917H13.0002C13.5982 11.917 14.0835 12.4023 14.0835 13.0003C14.0835 13.5983 13.5982 14.0837 13.0002 14.0837Z" fill="white"/>
<path d="M18.4167 11.917H16.25V14.0837H18.4167V11.917Z" fill="white"/>
<path d="M17.3333 9.74967C17.9316 9.74967 18.4167 9.26465 18.4167 8.66634C18.4167 8.06803 17.9316 7.58301 17.3333 7.58301C16.735 7.58301 16.25 8.06803 16.25 8.66634C16.25 9.26465 16.735 9.74967 17.3333 9.74967Z" fill="white"/>
</svg>
