<svg width="26" height="26" viewBox="0 0 26 26" fill="none" xmlns="http://www.w3.org/2000/svg">
<path opacity="0.35" d="M8.12516 10.8333C10.2192 10.8333 11.9168 9.13575 11.9168 7.04167C11.9168 4.94759 10.2192 3.25 8.12516 3.25C6.03108 3.25 4.3335 4.94759 4.3335 7.04167C4.3335 9.13575 6.03108 10.8333 8.12516 10.8333Z" fill="white"/>
<path opacity="0.35" d="M17.8752 10.8333C19.9692 10.8333 21.6668 9.13575 21.6668 7.04167C21.6668 4.94759 19.9692 3.25 17.8752 3.25C15.7811 3.25 14.0835 4.94759 14.0835 7.04167C14.0835 9.13575 15.7811 10.8333 17.8752 10.8333Z" fill="white"/>
<path d="M23.8333 18.9587C23.8333 21.0495 22.1325 22.7503 20.0417 22.7503H11.375C13.4658 22.7503 15.1667 21.0495 15.1667 18.9587C15.1667 17.9187 14.7442 16.9653 14.0508 16.2828C13.3683 15.5895 12.415 15.167 11.375 15.167H20.0417C22.1325 15.167 23.8333 16.8678 23.8333 18.9587Z" fill="white"/>
<path opacity="0.35" d="M16.2498 15.167V22.7503H5.95817C4.91817 22.7503 3.96484 22.3278 3.28234 21.6345C2.589 20.952 2.1665 19.9987 2.1665 18.9587C2.1665 16.8678 3.86734 15.167 5.95817 15.167H16.2498Z" fill="white"/>
</svg>
